<svg xmlns="http://www.w3.org/2000/svg" xmlns:xlink="http://www.w3.org/1999/xlink" contentStyleType="text/css" height="1345px" preserveAspectRatio="none" style="width:1724px;height:1345px;background:#FFFFFF;" version="1.1" viewBox="0 0 1724 1345" width="1724px" zoomAndPan="magnify"><title>Pati &#8212; Sa&#287;lay&#305;c&#305; Onboarding, Belge ve Do&#287;rulama</title><defs/><g><text fill="#000000" font-family="sans-serif" font-size="14" font-weight="bold" lengthAdjust="spacing" textLength="334.5234" x="693.7366" y="34.5332">Pati &#8212; Sa&#287;lay&#305;c&#305; Onboarding, Belge ve Do&#287;rulama</text><rect fill="none" height="22.6406" style="stroke:none;stroke-width:1;" width="1691.9966" x="15" y="51.0645"/><ellipse cx="139.3779" cy="88.7051" fill="#222222" rx="10" ry="10" style="stroke:#222222;stroke-width:1;"/><rect fill="#F1F1F1" height="35.0938" rx="12.5" ry="12.5" style="stroke:#181818;stroke-width:0.5;" width="164.0527" x="57.3516" y="118.7051"/><text fill="#000000" font-family="sans-serif" font-size="12" lengthAdjust="spacing" textLength="144.0527" x="67.3516" y="141.1621">Hesap ve yetkili ki&#351;i olu&#351;tur</text><rect fill="#F1F1F1" height="35.0938" rx="12.5" ry="12.5" style="stroke:#181818;stroke-width:0.5;" width="157.3906" x="60.6826" y="173.7988"/><text fill="#000000" font-family="sans-serif" font-size="12" lengthAdjust="spacing" textLength="137.3906" x="70.6826" y="196.2559">&#304;&#351;letme t&#252;r&#252; / kategori se&#231;</text><rect fill="#F1F1F1" height="50.1875" rx="12.5" ry="12.5" style="stroke:#181818;stroke-width:0.5;" width="188.7383" x="45.0088" y="228.8926"/><text fill="#000000" font-family="sans-serif" font-size="12" lengthAdjust="spacing" textLength="130.0723" x="55.0088" y="251.3496">Vergi, ruhsat, oda kayd&#305;,</text><text fill="#000000" font-family="sans-serif" font-size="12" lengthAdjust="spacing" textLength="168.7383" x="55.0088" y="266.4434">kimlik ve adres belgelerini y&#252;kle</text><rect fill="#F1F1F1" height="35.0938" rx="12.5" ry="12.5" style="stroke:#181818;stroke-width:0.5;" width="236.7559" x="21" y="299.0801"/><text fill="#000000" font-family="sans-serif" font-size="12" lengthAdjust="spacing" textLength="216.7559" x="31" y="321.5371">Hizmet, fiyat, b&#246;lge ve &#231;al&#305;&#351;ma saati ekle</text><rect fill="#F1F1F1" height="35.0938" rx="12.5" ry="12.5" style="stroke:#181818;stroke-width:0.5;" width="180.0898" x="148.8799" y="563.4551"/><text fill="#000000" font-family="sans-serif" font-size="12" lengthAdjust="spacing" textLength="160.0898" x="158.8799" y="585.9121">Eksik/uygunsuz belgeyi d&#252;zelt</text><rect fill="#F1F1F1" height="35.0938" rx="12.5" ry="12.5" style="stroke:#181818;stroke-width:0.5;" width="165.418" x="134.9568" y="960.9238"/><text fill="#000000" font-family="sans-serif" font-size="12" lengthAdjust="spacing" textLength="145.418" x="144.9568" y="983.3809">Ek belge / a&#231;&#305;klama g&#246;nder</text><rect fill="#F1F1F1" height="35.0938" rx="12.5" ry="12.5" style="stroke:#181818;stroke-width:0.5;" width="212.0938" x="33.3311" y="1201.2988"/><text fill="#000000" font-family="sans-serif" font-size="12" lengthAdjust="spacing" textLength="192.0938" x="43.3311" y="1223.7559">Takvim ve &#246;deme hesab&#305;n&#305; aktive et</text><line style="stroke:#000000;stroke-width:1.5;" x1="15" x2="15" y1="51.0645" y2="1333.4863"/><rect fill="#F1F1F1" height="35.0938" rx="12.5" ry="12.5" style="stroke:#181818;stroke-width:0.5;" width="251.4512" x="525.1233" y="354.1738"/><text fill="#000000" font-family="sans-serif" font-size="12" lengthAdjust="spacing" textLength="231.4512" x="535.1233" y="376.6309">Dosya tipi, vir&#252;s, boyut ve b&#252;t&#252;nl&#252;k kontrol&#252;</text><rect fill="#F1F1F1" height="35.0938" rx="12.5" ry="12.5" style="stroke:#181818;stroke-width:0.5;" width="216.1074" x="542.7952" y="409.2676"/><text fill="#000000" font-family="sans-serif" font-size="12" lengthAdjust="spacing" textLength="196.1074" x="552.7952" y="431.7246">Vergi/telefon/e-posta tekilli&#287;i kontrol&#252;</text><rect fill="#F1F1F1" height="35.0938" rx="12.5" ry="12.5" style="stroke:#181818;stroke-width:0.5;" width="194.7383" x="553.4797" y="464.3613"/><text fill="#000000" font-family="sans-serif" font-size="12" lengthAdjust="spacing" textLength="174.7383" x="563.4797" y="486.8184">Risk skoru ve eksik alan kontrol&#252;</text><polygon fill="#F1F1F1" points="587.2712,519.4551,714.4265,519.4551,726.4265,531.4551,714.4265,543.4551,587.2712,543.4551,575.2712,531.4551,587.2712,519.4551" style="stroke:#181818;stroke-width:0.5;"/><text fill="#000000" font-family="sans-serif" font-size="11" lengthAdjust="spacing" textLength="127.1553" x="587.2712" y="535.9561">Otomatik kontrol ge&#231;ti mi?</text><text fill="#000000" font-family="sans-serif" font-size="11" lengthAdjust="spacing" textLength="22.0107" x="553.2605" y="529.0381">Evet</text><text fill="#000000" font-family="sans-serif" font-size="11" lengthAdjust="spacing" textLength="26.2808" x="726.4265" y="529.0381">Hay&#305;r</text><rect fill="#F1F1F1" height="35.0938" rx="12.5" ry="12.5" style="stroke:#181818;stroke-width:0.5;" width="116.7324" x="692.0295" y="618.5488"/><text fill="#000000" font-family="sans-serif" font-size="12" lengthAdjust="spacing" textLength="96.7324" x="702.0295" y="641.0059">Yeniden kontrol et</text><polygon fill="#F1F1F1" points="650.8489,663.6426,662.8489,675.6426,650.8489,687.6426,638.8489,675.6426,650.8489,663.6426" style="stroke:#181818;stroke-width:0.5;"/><rect fill="#F1F1F1" height="35.0938" rx="12.5" ry="12.5" style="stroke:#181818;stroke-width:0.5;" width="250.7656" x="338.9697" y="1057.1113"/><text fill="#000000" font-family="sans-serif" font-size="12" lengthAdjust="spacing" textLength="230.7656" x="348.9697" y="1079.5684">Profil ve hizmetleri arama indeksine yay&#305;nla</text><rect fill="#F1F1F1" height="35.0938" rx="12.5" ry="12.5" style="stroke:#181818;stroke-width:0.5;" width="212.0762" x="358.3145" y="1112.2051"/><text fill="#000000" font-family="sans-serif" font-size="12" lengthAdjust="spacing" textLength="192.0762" x="368.3145" y="1134.6621">Belge biti&#351; tarihleri i&#231;in hat&#305;rlat&#305;c&#305; kur</text><polygon fill="#F1F1F1" points="776.2114,916.9238,898.479,916.9238,910.479,928.9238,898.479,940.9238,776.2114,940.9238,764.2114,928.9238,776.2114,916.9238" style="stroke:#181818;stroke-width:0.5;"/><text fill="#000000" font-family="sans-serif" font-size="11" lengthAdjust="spacing" textLength="122.2676" x="776.2114" y="933.4248">Ek bilgiyle &#231;&#246;z&#252;lebilir mi?</text><text fill="#000000" font-family="sans-serif" font-size="11" lengthAdjust="spacing" textLength="22.0107" x="742.2007" y="926.5068">Evet</text><text fill="#000000" font-family="sans-serif" font-size="11" lengthAdjust="spacing" textLength="17.1177" x="910.479" y="926.5068">Ret</text><rect fill="#F1F1F1" height="35.0938" rx="12.5" ry="12.5" style="stroke:#181818;stroke-width:0.5;" width="227.416" x="831.8457" y="960.9238"/><text fill="#000000" font-family="sans-serif" font-size="12" lengthAdjust="spacing" textLength="207.416" x="841.8457" y="983.3809">Gerek&#231;eli ret ve itiraz penceresi olu&#351;tur</text><ellipse cx="945.5537" cy="1042.0176" fill="none" rx="11" ry="11" style="stroke:#222222;stroke-width:1;"/><ellipse cx="945.5537" cy="1042.0176" fill="#222222" rx="6" ry="6" style="stroke:#222222;stroke-width:1;"/><rect fill="#F1F1F1" height="35.0938" rx="12.5" ry="12.5" style="stroke:#181818;stroke-width:0.5;" width="224.0938" x="538.802" y="1256.3926"/><text fill="#000000" font-family="sans-serif" font-size="12" lengthAdjust="spacing" textLength="204.0938" x="548.802" y="1278.8496">&#304;lk rezervasyona haz&#305;r durumuna ge&#231;ir</text><ellipse cx="650.8489" cy="1322.4863" fill="none" rx="11" ry="11" style="stroke:#222222;stroke-width:1;"/><ellipse cx="650.8489" cy="1322.4863" fill="#222222" rx="6" ry="6" style="stroke:#222222;stroke-width:1;"/><line style="stroke:#000000;stroke-width:1.5;" x1="332.9697" x2="332.9697" y1="51.0645" y2="1333.4863"/><rect fill="#F1F1F1" height="35.0938" rx="12.5" ry="12.5" style="stroke:#181818;stroke-width:0.5;" width="178.0977" x="1069.2617" y="563.4551"/><text fill="#000000" font-family="sans-serif" font-size="12" lengthAdjust="spacing" textLength="158.0977" x="1079.2617" y="585.9121">VoIP do&#287;rulama kuyru&#287;una al</text><rect fill="#F1F1F1" height="35.0938" rx="12.5" ry="12.5" style="stroke:#181818;stroke-width:0.5;" width="102.0195" x="1206.8477" y="707.6426"/><text fill="#000000" font-family="sans-serif" font-size="12" lengthAdjust="spacing" textLength="82.0195" x="1216.8477" y="730.0996">Yetkili ki&#351;iyi ara</text><rect fill="#F1F1F1" height="35.0938" rx="12.5" ry="12.5" style="stroke:#181818;stroke-width:0.5;" width="254.7383" x="1130.4883" y="762.7363"/><text fill="#000000" font-family="sans-serif" font-size="12" lengthAdjust="spacing" textLength="234.7383" x="1140.4883" y="785.1934">&#304;&#351;letme, hizmet, fiyat ve ileti&#351;im iznini teyit et</text><rect fill="#F1F1F1" height="35.0938" rx="12.5" ry="12.5" style="stroke:#181818;stroke-width:0.5;" width="224.7793" x="1145.4678" y="817.8301"/><text fill="#000000" font-family="sans-serif" font-size="12" lengthAdjust="spacing" textLength="204.7793" x="1155.4678" y="840.2871">&#199;a&#287;r&#305; sonucu + not + izin kayd&#305; olu&#351;tur</text><polygon fill="#F1F1F1" points="1193.9575,872.9238,1321.7573,872.9238,1333.7573,884.9238,1321.7573,896.9238,1193.9575,896.9238,1181.9575,884.9238,1193.9575,872.9238" style="stroke:#181818;stroke-width:0.5;"/><text fill="#000000" font-family="sans-serif" font-size="11" lengthAdjust="spacing" textLength="127.7998" x="1193.9575" y="889.4248">Manuel inceleme sonucu?</text><text fill="#000000" font-family="sans-serif" font-size="11" lengthAdjust="spacing" textLength="26.2915" x="1155.666" y="882.5068">Onay</text><text fill="#000000" font-family="sans-serif" font-size="11" lengthAdjust="spacing" textLength="52.5884" x="1333.7573" y="882.5068">Onay de&#287;il</text><polygon fill="#F1F1F1" points="1257.8574,1157.2988,1269.8574,1169.2988,1257.8574,1181.2988,1245.8574,1169.2988,1257.8574,1157.2988" style="stroke:#181818;stroke-width:0.5;"/><line style="stroke:#000000;stroke-width:1.5;" x1="1063.2617" x2="1063.2617" y1="51.0645" y2="1333.4863"/><rect fill="#F1F1F1" height="35.0938" rx="12.5" ry="12.5" style="stroke:#181818;stroke-width:0.5;" width="304.1504" x="1397.3457" y="916.9238"/><text fill="#000000" font-family="sans-serif" font-size="12" lengthAdjust="spacing" textLength="284.1504" x="1407.3457" y="939.3809">Kategoriye g&#246;re lisans ve son kullanma tarihi kontrol&#252;</text><rect fill="#F1F1F1" height="35.0938" rx="12.5" ry="12.5" style="stroke:#181818;stroke-width:0.5;" width="234.7461" x="1432.0479" y="987.0176"/><text fill="#000000" font-family="sans-serif" font-size="12" lengthAdjust="spacing" textLength="214.7461" x="1442.0479" y="1009.4746">Do&#287;rulanm&#305;&#351; rozeti ve yay&#305;n yetkisini ver</text><line style="stroke:#000000;stroke-width:1.5;" x1="1391.3457" x2="1391.3457" y1="51.0645" y2="1333.4863"/><line style="stroke:#000000;stroke-width:1.5;" x1="1705.4961" x2="1705.4961" y1="51.0645" y2="1333.4863"/><line style="stroke:#181818;stroke-width:1;" x1="139.3779" x2="139.3779" y1="98.7051" y2="118.7051"/><polygon fill="#181818" points="135.3779,108.7051,139.3779,118.7051,143.3779,108.7051,139.3779,112.7051" style="stroke:#181818;stroke-width:1;"/><line style="stroke:#181818;stroke-width:1;" x1="139.3779" x2="139.3779" y1="153.7988" y2="173.7988"/><polygon fill="#181818" points="135.3779,163.7988,139.3779,173.7988,143.3779,163.7988,139.3779,167.7988" style="stroke:#181818;stroke-width:1;"/><line style="stroke:#181818;stroke-width:1;" x1="139.3779" x2="139.3779" y1="208.8926" y2="228.8926"/><polygon fill="#181818" points="135.3779,218.8926,139.3779,228.8926,143.3779,218.8926,139.3779,222.8926" style="stroke:#181818;stroke-width:1;"/><line style="stroke:#181818;stroke-width:1;" x1="139.3779" x2="139.3779" y1="279.0801" y2="299.0801"/><polygon fill="#181818" points="135.3779,289.0801,139.3779,299.0801,143.3779,289.0801,139.3779,293.0801" style="stroke:#181818;stroke-width:1;"/><line style="stroke:#181818;stroke-width:1;" x1="650.8489" x2="650.8489" y1="389.2676" y2="409.2676"/><polygon fill="#181818" points="646.8489,399.2676,650.8489,409.2676,654.8489,399.2676,650.8489,403.2676" style="stroke:#181818;stroke-width:1;"/><line style="stroke:#181818;stroke-width:1;" x1="650.8489" x2="650.8489" y1="444.3613" y2="464.3613"/><polygon fill="#181818" points="646.8489,454.3613,650.8489,464.3613,654.8489,454.3613,650.8489,458.3613" style="stroke:#181818;stroke-width:1;"/><line style="stroke:#181818;stroke-width:1;" x1="750.3958" x2="750.3958" y1="653.6426" y2="675.6426"/><line style="stroke:#181818;stroke-width:1;" x1="750.3958" x2="662.8489" y1="675.6426" y2="675.6426"/><polygon fill="#181818" points="672.8489,671.6426,662.8489,675.6426,672.8489,679.6426,668.8489,675.6426" style="stroke:#181818;stroke-width:1;"/><line style="stroke:#181818;stroke-width:1;" x1="650.8489" x2="650.8489" y1="499.4551" y2="519.4551"/><polygon fill="#181818" points="646.8489,509.4551,650.8489,519.4551,654.8489,509.4551,650.8489,513.4551" style="stroke:#181818;stroke-width:1;"/><line style="stroke:#181818;stroke-width:1;" x1="464.3525" x2="464.3525" y1="1092.2051" y2="1112.2051"/><polygon fill="#181818" points="460.3525,1102.2051,464.3525,1112.2051,468.3525,1102.2051,464.3525,1106.2051" style="stroke:#181818;stroke-width:1;"/><line style="stroke:#181818;stroke-width:1;" x1="945.5537" x2="945.5537" y1="996.0176" y2="1031.0176"/><polygon fill="#181818" points="941.5537,1021.0176,945.5537,1031.0176,949.5537,1021.0176,945.5537,1025.0176" style="stroke:#181818;stroke-width:1;"/><line style="stroke:#181818;stroke-width:1;" x1="910.479" x2="945.5537" y1="928.9238" y2="928.9238"/><line style="stroke:#181818;stroke-width:1;" x1="945.5537" x2="945.5537" y1="928.9238" y2="960.9238"/><polygon fill="#181818" points="941.5537,950.9238,945.5537,960.9238,949.5537,950.9238,945.5537,954.9238" style="stroke:#181818;stroke-width:1;"/><line style="stroke:#181818;stroke-width:1;" x1="650.8489" x2="650.8489" y1="1291.4863" y2="1311.4863"/><polygon fill="#181818" points="646.8489,1301.4863,650.8489,1311.4863,654.8489,1301.4863,650.8489,1305.4863" style="stroke:#181818;stroke-width:1;"/><line style="stroke:#181818;stroke-width:1;" x1="1257.8574" x2="1257.8574" y1="742.7363" y2="762.7363"/><polygon fill="#181818" points="1253.8574,752.7363,1257.8574,762.7363,1261.8574,752.7363,1257.8574,756.7363" style="stroke:#181818;stroke-width:1;"/><line style="stroke:#181818;stroke-width:1;" x1="1257.8574" x2="1257.8574" y1="797.8301" y2="817.8301"/><polygon fill="#181818" points="1253.8574,807.8301,1257.8574,817.8301,1261.8574,807.8301,1257.8574,811.8301" style="stroke:#181818;stroke-width:1;"/><line style="stroke:#181818;stroke-width:1;" x1="1257.8574" x2="1257.8574" y1="852.9238" y2="872.9238"/><polygon fill="#181818" points="1253.8574,862.9238,1257.8574,872.9238,1261.8574,862.9238,1257.8574,866.9238" style="stroke:#181818;stroke-width:1;"/><line style="stroke:#181818;stroke-width:1;" x1="1549.4209" x2="1549.4209" y1="952.0176" y2="987.0176"/><polygon fill="#181818" points="1545.4209,977.0176,1549.4209,987.0176,1553.4209,977.0176,1549.4209,981.0176" style="stroke:#181818;stroke-width:1;"/><line style="stroke:#181818;stroke-width:1;" x1="139.3779" x2="139.3779" y1="334.1738" y2="339.1738"/><line style="stroke:#181818;stroke-width:1;" x1="139.3779" x2="650.8489" y1="339.1738" y2="339.1738"/><line style="stroke:#181818;stroke-width:1;" x1="650.8489" x2="650.8489" y1="339.1738" y2="354.1738"/><polygon fill="#181818" points="646.8489,344.1738,650.8489,354.1738,654.8489,344.1738,650.8489,348.1738" style="stroke:#181818;stroke-width:1;"/><line style="stroke:#181818;stroke-width:1;" x1="238.9248" x2="238.9248" y1="598.5488" y2="603.5488"/><line style="stroke:#181818;stroke-width:1;" x1="238.9248" x2="750.3958" y1="603.5488" y2="603.5488"/><line style="stroke:#181818;stroke-width:1;" x1="750.3958" x2="750.3958" y1="603.5488" y2="618.5488"/><polygon fill="#181818" points="746.3958,608.5488,750.3958,618.5488,754.3958,608.5488,750.3958,612.5488" style="stroke:#181818;stroke-width:1;"/><line style="stroke:#181818;stroke-width:1;" x1="575.2712" x2="563.2712" y1="531.4551" y2="531.4551"/><line style="stroke:#181818;stroke-width:1;" x1="563.2712" x2="563.2712" y1="531.4551" y2="549.4551"/><line style="stroke:#181818;stroke-width:1;" x1="563.2712" x2="1158.3105" y1="549.4551" y2="549.4551"/><line style="stroke:#181818;stroke-width:1;" x1="1158.3105" x2="1158.3105" y1="549.4551" y2="563.4551"/><polygon fill="#181818" points="1154.3105,553.4551,1158.3105,563.4551,1162.3105,553.4551,1158.3105,557.4551" style="stroke:#181818;stroke-width:1;"/><line style="stroke:#181818;stroke-width:1;" x1="726.4265" x2="738.4265" y1="531.4551" y2="531.4551"/><line style="stroke:#181818;stroke-width:1;" x1="738.4265" x2="738.4265" y1="531.4551" y2="549.4551"/><line style="stroke:#181818;stroke-width:1;" x1="738.4265" x2="238.9248" y1="549.4551" y2="549.4551"/><line style="stroke:#181818;stroke-width:1;" x1="238.9248" x2="238.9248" y1="549.4551" y2="563.4551"/><polygon fill="#181818" points="234.9248,553.4551,238.9248,563.4551,242.9248,553.4551,238.9248,557.4551" style="stroke:#181818;stroke-width:1;"/><line style="stroke:#181818;stroke-width:1;" x1="1158.3105" x2="1158.3105" y1="598.5488" y2="657.6426"/><line style="stroke:#181818;stroke-width:1;" x1="1158.3105" x2="620.8489" y1="657.6426" y2="657.6426"/><line style="stroke:#181818;stroke-width:1;" x1="620.8489" x2="620.8489" y1="657.6426" y2="675.6426"/><line style="stroke:#181818;stroke-width:1;" x1="620.8489" x2="638.8489" y1="675.6426" y2="675.6426"/><polygon fill="#181818" points="628.8489,671.6426,638.8489,675.6426,628.8489,679.6426,632.8489,675.6426" style="stroke:#181818;stroke-width:1;"/><line style="stroke:#181818;stroke-width:1;" x1="650.8489" x2="650.8489" y1="687.6426" y2="692.6426"/><line style="stroke:#181818;stroke-width:1;" x1="650.8489" x2="1257.8574" y1="692.6426" y2="692.6426"/><line style="stroke:#181818;stroke-width:1;" x1="1257.8574" x2="1257.8574" y1="692.6426" y2="707.6426"/><polygon fill="#181818" points="1253.8574,697.6426,1257.8574,707.6426,1261.8574,697.6426,1257.8574,701.6426" style="stroke:#181818;stroke-width:1;"/><line style="stroke:#181818;stroke-width:1;" x1="1549.4209" x2="1549.4209" y1="1022.1113" y2="1039.6113"/><line style="stroke:#181818;stroke-width:1;" x1="1549.4209" x2="464.3525" y1="1039.6113" y2="1039.6113"/><line style="stroke:#181818;stroke-width:1;" x1="464.3525" x2="464.3525" y1="1039.6113" y2="1057.1113"/><polygon fill="#181818" points="460.3525,1047.1113,464.3525,1057.1113,468.3525,1047.1113,464.3525,1051.1113" style="stroke:#181818;stroke-width:1;"/><line style="stroke:#181818;stroke-width:1;" x1="764.2114" x2="217.6658" y1="928.9238" y2="928.9238"/><line style="stroke:#181818;stroke-width:1;" x1="217.6658" x2="217.6658" y1="928.9238" y2="960.9238"/><polygon fill="#181818" points="213.6658,950.9238,217.6658,960.9238,221.6658,950.9238,217.6658,954.9238" style="stroke:#181818;stroke-width:1;"/><line style="stroke:#181818;stroke-width:1;" x1="217.6658" x2="217.6658" y1="996.0176" y2="1151.2988"/><line style="stroke:#181818;stroke-width:1;" x1="217.6658" x2="1287.8574" y1="1151.2988" y2="1151.2988"/><line style="stroke:#181818;stroke-width:1;" x1="1287.8574" x2="1287.8574" y1="1151.2988" y2="1169.2988"/><line style="stroke:#181818;stroke-width:1;" x1="1287.8574" x2="1269.8574" y1="1169.2988" y2="1169.2988"/><polygon fill="#181818" points="1279.8574,1165.2988,1269.8574,1169.2988,1279.8574,1173.2988,1275.8574,1169.2988" style="stroke:#181818;stroke-width:1;"/><line style="stroke:#181818;stroke-width:1;" x1="1181.9575" x2="1169.9575" y1="884.9238" y2="884.9238"/><line style="stroke:#181818;stroke-width:1;" x1="1169.9575" x2="1169.9575" y1="884.9238" y2="902.9238"/><line style="stroke:#181818;stroke-width:1;" x1="1169.9575" x2="1549.4209" y1="902.9238" y2="902.9238"/><line style="stroke:#181818;stroke-width:1;" x1="1549.4209" x2="1549.4209" y1="902.9238" y2="916.9238"/><polygon fill="#181818" points="1545.4209,906.9238,1549.4209,916.9238,1553.4209,906.9238,1549.4209,910.9238" style="stroke:#181818;stroke-width:1;"/><line style="stroke:#181818;stroke-width:1;" x1="1333.7573" x2="1345.7573" y1="884.9238" y2="884.9238"/><line style="stroke:#181818;stroke-width:1;" x1="1345.7573" x2="1345.7573" y1="884.9238" y2="902.9238"/><line style="stroke:#181818;stroke-width:1;" x1="1345.7573" x2="837.3452" y1="902.9238" y2="902.9238"/><line style="stroke:#181818;stroke-width:1;" x1="837.3452" x2="837.3452" y1="902.9238" y2="916.9238"/><polygon fill="#181818" points="833.3452,906.9238,837.3452,916.9238,841.3452,906.9238,837.3452,910.9238" style="stroke:#181818;stroke-width:1;"/><line style="stroke:#181818;stroke-width:1;" x1="464.3525" x2="464.3525" y1="1147.2988" y2="1169.2988"/><line style="stroke:#181818;stroke-width:1;" x1="464.3525" x2="1245.8574" y1="1169.2988" y2="1169.2988"/><polygon fill="#181818" points="1235.8574,1165.2988,1245.8574,1169.2988,1235.8574,1173.2988,1239.8574,1169.2988" style="stroke:#181818;stroke-width:1;"/><line style="stroke:#181818;stroke-width:1;" x1="1257.8574" x2="1257.8574" y1="1181.2988" y2="1186.2988"/><line style="stroke:#181818;stroke-width:1;" x1="1257.8574" x2="139.3779" y1="1186.2988" y2="1186.2988"/><line style="stroke:#181818;stroke-width:1;" x1="139.3779" x2="139.3779" y1="1186.2988" y2="1201.2988"/><polygon fill="#181818" points="135.3779,1191.2988,139.3779,1201.2988,143.3779,1191.2988,139.3779,1195.2988" style="stroke:#181818;stroke-width:1;"/><line style="stroke:#181818;stroke-width:1;" x1="139.3779" x2="139.3779" y1="1236.3926" y2="1241.3926"/><line style="stroke:#181818;stroke-width:1;" x1="139.3779" x2="650.8489" y1="1241.3926" y2="1241.3926"/><line style="stroke:#181818;stroke-width:1;" x1="650.8489" x2="650.8489" y1="1241.3926" y2="1256.3926"/><polygon fill="#181818" points="646.8489,1246.3926,650.8489,1256.3926,654.8489,1246.3926,650.8489,1250.3926" style="stroke:#181818;stroke-width:1;"/><text fill="#000000" font-family="sans-serif" font-size="18" lengthAdjust="spacing" textLength="74.0391" x="136.9653" y="69.75">Sa&#287;lay&#305;c&#305;</text><text fill="#000000" font-family="sans-serif" font-size="18" lengthAdjust="spacing" textLength="67.0166" x="664.6074" y="69.75">Platform</text><text fill="#000000" font-family="sans-serif" font-size="18" lengthAdjust="spacing" textLength="88.0488" x="1183.2793" y="69.75">Operasyon</text><text fill="#000000" font-family="sans-serif" font-size="18" lengthAdjust="spacing" textLength="51.0205" x="1522.9106" y="69.75">Admin</text><!--SRC=[RLIxRXDH4EttAwPCX57wJO50H0GXb2YWI9JZxDWUtRltMlTXj2iNTFm0lKktk4dbRZS_mfSmutN21cXMbdSUPyvZ4oTBS8s9uTUt7_09-ut5fj_TzJkuSbEFeM8tdy0RidE25S5Rtsz2jbXZ4Gsx9GQi8Iwmyb-b46Pe8nNhyPnr4HE6L9IN576fCnfAXYs3uOSDWxVvOPDoE2_A_kV3nbAg2LAt3zqUpi1WehaF396whPJSKfZp149UH4mJy1LAILFrkqbXkBPiT05MWI9C5REbm8wXwVR6alHVSbkJDCwuqVvfTtyyhDkYxNSFcneXel91XuRrjSKqyw5U5-LR7nk4n4i1i6B15sM0RtBI_cct5z3EoY8mtgNWvUSZuBCaG6RUdT7BfHSw894mOBcN-yV5DnmDHED3rf5aejo35jsuY6TmSfLyBHYVDi5Ss17CDRywXRGW1oSNAqgd1QolbXGmDjwj2oXl_Vjhg9ua19ERaFjDTYXhpWiIyU3aKeKBsljSHYWl5D1PRkRPnTmE13SCLRTloQPpwVZ35fHVo755JzY1f89SnRDY34hAHcwGQUAeiHKci1XBfhomlD3Y6hXrgcuI5Eaml-o-2-OWxetUvRiCBy3v94zksHsTCdASSlaHNIOBxEv48x7UqFZ4uvN3HhbuNTLyuF33qP4DmRox3mIM8xgemAHLABKYc70hfkV5CtcXV4oFgzLg47mhbnmYeIox8HbHJrfH-9lFw-1dRBLwO4IjhMp9BdQLciKz3hAesuRGJbd96k0SMhZR2XSBJAAorQU6tIWTW_vwCLGathHok59qOMIAdNDZDIVTVTljBSa_7FxZk7ziexuPl29vncxRxyp1VCAUmDOpXxqtn_RHpL2-eq2csv8O9D2WVkA0BIn919EOZpyW037vfSmxkEpejUTeoizeLk8SJVnzfNelvBCq5Sw413I9DNVfUUxxdzR8zfR2wc1Q5F9Q8G-g77AjuT7uiG3GzRy1]--></g></svg>