<svg xmlns="http://www.w3.org/2000/svg" xmlns:xlink="http://www.w3.org/1999/xlink" contentStyleType="text/css" height="1543px" preserveAspectRatio="none" style="width:952px;height:1543px;background:#FFFFFF;" version="1.1" viewBox="0 0 952 1543" width="952px" zoomAndPan="magnify"><title>Pati &#8212; Walker Hizmeti, Canl&#305; G&#252;venlik ve Olay Y&#246;netimi</title><defs/><g><text fill="#000000" font-family="sans-serif" font-size="14" font-weight="bold" lengthAdjust="spacing" textLength="369.5508" x="290.1379" y="34.5332">Pati &#8212; Walker Hizmeti, Canl&#305; G&#252;venlik ve Olay Y&#246;netimi</text><rect fill="none" height="22.6406" style="stroke:none;stroke-width:1;" width="919.8267" x="15" y="51.0645"/><ellipse cx="162.3877" cy="88.7051" fill="#222222" rx="10" ry="10" style="stroke:#222222;stroke-width:1;"/><rect fill="#F1F1F1" height="35.0938" rx="12.5" ry="12.5" style="stroke:#181818;stroke-width:0.5;" width="230.7617" x="47.0068" y="118.7051"/><text fill="#000000" font-family="sans-serif" font-size="12" lengthAdjust="spacing" textLength="210.7617" x="57.0068" y="141.1621">Pet, s&#252;re, rota tercihi ve &#246;zel notlar&#305; se&#231;</text><rect fill="#F1F1F1" height="35.0938" rx="12.5" ry="12.5" style="stroke:#181818;stroke-width:0.5;" width="282.7754" x="21" y="173.7988"/><text fill="#000000" font-family="sans-serif" font-size="12" lengthAdjust="spacing" textLength="262.7754" x="31" y="196.2559">Alerji, davran&#305;&#351;, tasma ve acil ki&#351;i bilgisini do&#287;rula</text><rect fill="#F1F1F1" height="35.0938" rx="12.5" ry="12.5" style="stroke:#181818;stroke-width:0.5;" width="242.7441" x="41.0156" y="1454.3223"/><text fill="#000000" font-family="sans-serif" font-size="12" lengthAdjust="spacing" textLength="222.7441" x="51.0156" y="1476.7793">Tamamlanmay&#305; onayla / itiraz et / yorumla</text><ellipse cx="162.3877" cy="1520.416" fill="none" rx="11" ry="11" style="stroke:#222222;stroke-width:1;"/><ellipse cx="162.3877" cy="1520.416" fill="#222222" rx="6" ry="6" style="stroke:#222222;stroke-width:1;"/><line style="stroke:#000000;stroke-width:1.5;" x1="15" x2="15" y1="51.0645" y2="1531.416"/><rect fill="#F1F1F1" height="35.0938" rx="12.5" ry="12.5" style="stroke:#181818;stroke-width:0.5;" width="319.4727" x="314.4463" y="228.8926"/><text fill="#000000" font-family="sans-serif" font-size="12" lengthAdjust="spacing" textLength="299.4727" x="324.4463" y="251.3496">Do&#287;rulanm&#305;&#351; walker + hizmet b&#246;lgesi + uygunluk e&#351;le&#351;tir</text><rect fill="#F1F1F1" height="35.0938" rx="12.5" ry="12.5" style="stroke:#181818;stroke-width:0.5;" width="234.7637" x="356.8008" y="283.9863"/><text fill="#000000" font-family="sans-serif" font-size="12" lengthAdjust="spacing" textLength="214.7637" x="366.8008" y="306.4434">Rezervasyon ve korumal&#305; &#246;deme olu&#351;tur</text><rect fill="#F1F1F1" height="35.0938" rx="12.5" ry="12.5" style="stroke:#181818;stroke-width:0.5;" width="216.1074" x="366.1289" y="504.3613"/><text fill="#000000" font-family="sans-serif" font-size="12" lengthAdjust="spacing" textLength="196.1074" x="376.1289" y="526.8184">Ba&#351;lang&#305;&#231; zaman&#305; ve konumu kaydet</text><rect fill="#F1F1F1" height="35.0938" rx="12.5" ry="12.5" style="stroke:#181818;stroke-width:0.5;" width="302.0996" x="323.1328" y="559.4551"/><text fill="#000000" font-family="sans-serif" font-size="12" lengthAdjust="spacing" textLength="282.0996" x="333.1328" y="581.9121">Konum payla&#351;&#305;m&#305; i&#231;in hizmet-s&#252;reli a&#231;&#305;k r&#305;za aktive et</text><rect fill="#F1F1F1" height="35.0938" rx="12.5" ry="12.5" style="stroke:#181818;stroke-width:0.5;" width="320.8145" x="313.7754" y="768.7363"/><text fill="#000000" font-family="sans-serif" font-size="12" lengthAdjust="spacing" textLength="300.8145" x="323.7754" y="791.1934">Sapma, ba&#287;lant&#305; kesilmesi ve uzun hareketsizlik kontrol&#252;</text><rect fill="#F1F1F1" height="35.0938" rx="12.5" ry="12.5" style="stroke:#181818;stroke-width:0.5;" width="171.4063" x="388.4795" y="872.748"/><text fill="#000000" font-family="sans-serif" font-size="12" lengthAdjust="spacing" textLength="151.4063" x="398.4795" y="895.2051">Walker ve pet sahibine uyar&#305;</text><rect fill="#F1F1F1" height="35.0938" rx="12.5" ry="12.5" style="stroke:#181818;stroke-width:0.5;" width="252.7754" x="347.7949" y="976.7598"/><text fill="#000000" font-family="sans-serif" font-size="12" lengthAdjust="spacing" textLength="232.7754" x="357.7949" y="999.2168">Acil ki&#351;i / veteriner / operasyon eskalasyonu</text><rect fill="#F1F1F1" height="35.0938" rx="12.5" ry="12.5" style="stroke:#181818;stroke-width:0.5;" width="210.752" x="368.8066" y="1046.8535"/><text fill="#000000" font-family="sans-serif" font-size="12" lengthAdjust="spacing" textLength="190.752" x="378.8066" y="1069.3105">Olay kayd&#305; ve kan&#305;t zaman &#231;izelgesi</text><polygon fill="#F1F1F1" points="454.9299,927.8418,493.4353,927.8418,505.4353,939.8418,493.4353,951.8418,454.9299,951.8418,442.9299,939.8418,454.9299,927.8418" style="stroke:#181818;stroke-width:0.5;"/><text fill="#000000" font-family="sans-serif" font-size="11" lengthAdjust="spacing" textLength="22.0107" x="478.1826" y="963.2607">Evet</text><text fill="#000000" font-family="sans-serif" font-size="11" lengthAdjust="spacing" textLength="38.5054" x="454.9299" y="944.3428">Acil mi?</text><polygon fill="#F1F1F1" points="474.1826,1101.9473,486.1826,1113.9473,474.1826,1125.9473,462.1826,1113.9473,474.1826,1101.9473" style="stroke:#181818;stroke-width:0.5;"/><polygon fill="#F1F1F1" points="447.2842,823.8301,501.0811,823.8301,513.0811,835.8301,501.0811,847.8301,447.2842,847.8301,435.2842,835.8301,447.2842,823.8301" style="stroke:#181818;stroke-width:0.5;"/><text fill="#000000" font-family="sans-serif" font-size="11" lengthAdjust="spacing" textLength="22.0107" x="478.1826" y="859.249">Evet</text><text fill="#000000" font-family="sans-serif" font-size="11" lengthAdjust="spacing" textLength="53.7969" x="447.2842" y="840.3311">Risk olay&#305;?</text><polygon fill="#F1F1F1" points="474.1826,1145.9473,486.1826,1157.9473,474.1826,1169.9473,462.1826,1157.9473,474.1826,1145.9473" style="stroke:#181818;stroke-width:0.5;"/><rect fill="#F1F1F1" height="35.0938" rx="12.5" ry="12.5" style="stroke:#181818;stroke-width:0.5;" width="207.4121" x="370.4766" y="1344.1348"/><text fill="#000000" font-family="sans-serif" font-size="12" lengthAdjust="spacing" textLength="187.4121" x="380.4766" y="1366.5918">Biti&#351;, rota &#246;zeti ve kan&#305;tlar&#305; m&#252;h&#252;rle</text><rect fill="#F1F1F1" height="35.0938" rx="12.5" ry="12.5" style="stroke:#181818;stroke-width:0.5;" width="296.1641" x="326.1006" y="1399.2285"/><text fill="#000000" font-family="sans-serif" font-size="12" lengthAdjust="spacing" textLength="276.1641" x="336.1006" y="1421.6855">Konum takibini kapat ve retention politikas&#305;n&#305; uygula</text><line style="stroke:#000000;stroke-width:1.5;" x1="307.7754" x2="307.7754" y1="51.0645" y2="1531.416"/><rect fill="#F1F1F1" height="35.0938" rx="12.5" ry="12.5" style="stroke:#181818;stroke-width:0.5;" width="242.7559" x="657.5703" y="339.0801"/><text fill="#000000" font-family="sans-serif" font-size="12" lengthAdjust="spacing" textLength="222.7559" x="667.5703" y="361.5371">Talebi ve minimum gerekli pet bilgisini g&#246;r</text><rect fill="#F1F1F1" height="35.0938" rx="12.5" ry="12.5" style="stroke:#181818;stroke-width:0.5;" width="64.0332" x="746.9316" y="394.1738"/><text fill="#000000" font-family="sans-serif" font-size="12" lengthAdjust="spacing" textLength="44.0332" x="756.9316" y="416.6309">Kabul et</text><rect fill="#F1F1F1" height="35.0938" rx="12.5" ry="12.5" style="stroke:#181818;stroke-width:0.5;" width="184.0449" x="686.9258" y="449.2676"/><text fill="#000000" font-family="sans-serif" font-size="12" lengthAdjust="spacing" textLength="164.0449" x="696.9258" y="471.7246">Teslim alma OTP / QR do&#287;rula</text><rect fill="#F1F1F1" height="35.0938" rx="12.5" ry="12.5" style="stroke:#181818;stroke-width:0.5;" width="106.0508" x="725.9229" y="614.5488"/><text fill="#000000" font-family="sans-serif" font-size="12" lengthAdjust="spacing" textLength="86.0508" x="735.9229" y="637.0059">Y&#252;r&#252;y&#252;&#351;&#252; ba&#351;lat</text><rect fill="#F1F1F1" height="35.0938" rx="12.5" ry="12.5" style="stroke:#181818;stroke-width:0.5;" width="188.7559" x="684.5703" y="713.6426"/><text fill="#000000" font-family="sans-serif" font-size="12" lengthAdjust="spacing" textLength="168.7559" x="694.5703" y="736.0996">Konum / s&#252;re / mesafe g&#252;ncelle</text><polygon fill="#F1F1F1" points="778.9482,669.6426,790.9482,681.6426,778.9482,693.6426,766.9482,681.6426,778.9482,669.6426" style="stroke:#181818;stroke-width:0.5;"/><polygon fill="#F1F1F1" points="738.9094,1189.9473,818.9871,1189.9473,830.9871,1201.9473,818.9871,1213.9473,738.9094,1213.9473,726.9094,1201.9473,738.9094,1189.9473" style="stroke:#181818;stroke-width:0.5;"/><text fill="#000000" font-family="sans-serif" font-size="11" lengthAdjust="spacing" textLength="80.0776" x="738.9094" y="1206.4482">Hizmet s&#252;r&#252;yor?</text><text fill="#000000" font-family="sans-serif" font-size="11" lengthAdjust="spacing" textLength="22.0107" x="830.9871" y="1199.5303">Evet</text><rect fill="#F1F1F1" height="35.0938" rx="12.5" ry="12.5" style="stroke:#181818;stroke-width:0.5;" width="239.457" x="659.2197" y="1233.9473"/><text fill="#000000" font-family="sans-serif" font-size="12" lengthAdjust="spacing" textLength="219.457" x="669.2197" y="1256.4043">Foto&#287;raf/not ekle ve teslim noktas&#305;na d&#246;n</text><rect fill="#F1F1F1" height="35.0938" rx="12.5" ry="12.5" style="stroke:#181818;stroke-width:0.5;" width="154.7012" x="701.5977" y="1289.041"/><text fill="#000000" font-family="sans-serif" font-size="12" lengthAdjust="spacing" textLength="134.7012" x="711.5977" y="1311.498">Teslim OTP / QR do&#287;rula</text><line style="stroke:#000000;stroke-width:1.5;" x1="651.5703" x2="651.5703" y1="51.0645" y2="1531.416"/><line style="stroke:#000000;stroke-width:1.5;" x1="933.3262" x2="933.3262" y1="51.0645" y2="1531.416"/><line style="stroke:#181818;stroke-width:1;" x1="162.3877" x2="162.3877" y1="98.7051" y2="118.7051"/><polygon fill="#181818" points="158.3877,108.7051,162.3877,118.7051,166.3877,108.7051,162.3877,112.7051" style="stroke:#181818;stroke-width:1;"/><line style="stroke:#181818;stroke-width:1;" x1="162.3877" x2="162.3877" y1="153.7988" y2="173.7988"/><polygon fill="#181818" points="158.3877,163.7988,162.3877,173.7988,166.3877,163.7988,162.3877,167.7988" style="stroke:#181818;stroke-width:1;"/><line style="stroke:#181818;stroke-width:1;" x1="162.3877" x2="162.3877" y1="1489.416" y2="1509.416"/><polygon fill="#181818" points="158.3877,1499.416,162.3877,1509.416,166.3877,1499.416,162.3877,1503.416" style="stroke:#181818;stroke-width:1;"/><line style="stroke:#181818;stroke-width:1;" x1="474.1826" x2="474.1826" y1="263.9863" y2="283.9863"/><polygon fill="#181818" points="470.1826,273.9863,474.1826,283.9863,478.1826,273.9863,474.1826,277.9863" style="stroke:#181818;stroke-width:1;"/><line style="stroke:#181818;stroke-width:1;" x1="474.1826" x2="474.1826" y1="539.4551" y2="559.4551"/><polygon fill="#181818" points="470.1826,549.4551,474.1826,559.4551,478.1826,549.4551,474.1826,553.4551" style="stroke:#181818;stroke-width:1;"/><line style="stroke:#181818;stroke-width:1;" x1="474.1826" x2="474.1826" y1="1011.8535" y2="1046.8535"/><polygon fill="#181818" points="470.1826,1036.8535,474.1826,1046.8535,478.1826,1036.8535,474.1826,1040.8535" style="stroke:#181818;stroke-width:1;"/><line style="stroke:#181818;stroke-width:1;" x1="474.1826" x2="474.1826" y1="951.8418" y2="976.7598"/><polygon fill="#181818" points="470.1826,966.7598,474.1826,976.7598,478.1826,966.7598,474.1826,970.7598" style="stroke:#181818;stroke-width:1;"/><line style="stroke:#181818;stroke-width:1;" x1="505.4353" x2="610.5703" y1="939.8418" y2="939.8418"/><polygon fill="#181818" points="606.5703,1019.3535,610.5703,1029.3535,614.5703,1019.3535,610.5703,1023.3535" style="stroke:#181818;stroke-width:1;"/><line style="stroke:#181818;stroke-width:1;" x1="610.5703" x2="610.5703" y1="939.8418" y2="1113.9473"/><line style="stroke:#181818;stroke-width:1;" x1="610.5703" x2="486.1826" y1="1113.9473" y2="1113.9473"/><polygon fill="#181818" points="496.1826,1109.9473,486.1826,1113.9473,496.1826,1117.9473,492.1826,1113.9473" style="stroke:#181818;stroke-width:1;"/><line style="stroke:#181818;stroke-width:1;" x1="474.1826" x2="474.1826" y1="1081.9473" y2="1101.9473"/><polygon fill="#181818" points="470.1826,1091.9473,474.1826,1101.9473,478.1826,1091.9473,474.1826,1095.9473" style="stroke:#181818;stroke-width:1;"/><line style="stroke:#181818;stroke-width:1;" x1="474.1826" x2="474.1826" y1="907.8418" y2="927.8418"/><polygon fill="#181818" points="470.1826,917.8418,474.1826,927.8418,478.1826,917.8418,474.1826,921.8418" style="stroke:#181818;stroke-width:1;"/><line style="stroke:#181818;stroke-width:1;" x1="474.1826" x2="474.1826" y1="847.8301" y2="872.748"/><polygon fill="#181818" points="470.1826,862.748,474.1826,872.748,478.1826,862.748,474.1826,866.748" style="stroke:#181818;stroke-width:1;"/><line style="stroke:#181818;stroke-width:1;" x1="513.0811" x2="632.5703" y1="835.8301" y2="835.8301"/><polygon fill="#181818" points="628.5703,984.3066,632.5703,994.3066,636.5703,984.3066,632.5703,988.3066" style="stroke:#181818;stroke-width:1;"/><line style="stroke:#181818;stroke-width:1;" x1="632.5703" x2="632.5703" y1="835.8301" y2="1157.9473"/><line style="stroke:#181818;stroke-width:1;" x1="632.5703" x2="486.1826" y1="1157.9473" y2="1157.9473"/><polygon fill="#181818" points="496.1826,1153.9473,486.1826,1157.9473,496.1826,1161.9473,492.1826,1157.9473" style="stroke:#181818;stroke-width:1;"/><line style="stroke:#181818;stroke-width:1;" x1="474.1826" x2="474.1826" y1="1125.9473" y2="1145.9473"/><polygon fill="#181818" points="470.1826,1135.9473,474.1826,1145.9473,478.1826,1135.9473,474.1826,1139.9473" style="stroke:#181818;stroke-width:1;"/><line style="stroke:#181818;stroke-width:1;" x1="474.1826" x2="474.1826" y1="803.8301" y2="823.8301"/><polygon fill="#181818" points="470.1826,813.8301,474.1826,823.8301,478.1826,813.8301,474.1826,817.8301" style="stroke:#181818;stroke-width:1;"/><line style="stroke:#181818;stroke-width:1;" x1="474.1826" x2="474.1826" y1="1379.2285" y2="1399.2285"/><polygon fill="#181818" points="470.1826,1389.2285,474.1826,1399.2285,478.1826,1389.2285,474.1826,1393.2285" style="stroke:#181818;stroke-width:1;"/><line style="stroke:#181818;stroke-width:1;" x1="778.9482" x2="778.9482" y1="374.1738" y2="394.1738"/><polygon fill="#181818" points="774.9482,384.1738,778.9482,394.1738,782.9482,384.1738,778.9482,388.1738" style="stroke:#181818;stroke-width:1;"/><line style="stroke:#181818;stroke-width:1;" x1="778.9482" x2="778.9482" y1="429.2676" y2="449.2676"/><polygon fill="#181818" points="774.9482,439.2676,778.9482,449.2676,782.9482,439.2676,778.9482,443.2676" style="stroke:#181818;stroke-width:1;"/><line style="stroke:#181818;stroke-width:1;" x1="778.9482" x2="778.9482" y1="693.6426" y2="713.6426"/><polygon fill="#181818" points="774.9482,703.6426,778.9482,713.6426,782.9482,703.6426,778.9482,707.6426" style="stroke:#181818;stroke-width:1;"/><line style="stroke:#181818;stroke-width:1;" x1="830.9871" x2="914.3262" y1="1201.9473" y2="1201.9473"/><polygon fill="#181818" points="910.3262,934.2129,914.3262,924.2129,918.3262,934.2129,914.3262,930.2129" style="stroke:#181818;stroke-width:1;"/><line style="stroke:#181818;stroke-width:1;" x1="914.3262" x2="914.3262" y1="681.6426" y2="1201.9473"/><line style="stroke:#181818;stroke-width:1;" x1="914.3262" x2="790.9482" y1="681.6426" y2="681.6426"/><polygon fill="#181818" points="800.9482,677.6426,790.9482,681.6426,800.9482,685.6426,796.9482,681.6426" style="stroke:#181818;stroke-width:1;"/><line style="stroke:#181818;stroke-width:1;" x1="778.9482" x2="778.9482" y1="649.6426" y2="669.6426"/><polygon fill="#181818" points="774.9482,659.6426,778.9482,669.6426,782.9482,659.6426,778.9482,663.6426" style="stroke:#181818;stroke-width:1;"/><line style="stroke:#181818;stroke-width:1;" x1="778.9482" x2="778.9482" y1="1213.9473" y2="1233.9473"/><polygon fill="#181818" points="774.9482,1223.9473,778.9482,1233.9473,782.9482,1223.9473,778.9482,1227.9473" style="stroke:#181818;stroke-width:1;"/><line style="stroke:#181818;stroke-width:1;" x1="778.9482" x2="778.9482" y1="1269.041" y2="1289.041"/><polygon fill="#181818" points="774.9482,1279.041,778.9482,1289.041,782.9482,1279.041,778.9482,1283.041" style="stroke:#181818;stroke-width:1;"/><line style="stroke:#181818;stroke-width:1;" x1="162.3877" x2="162.3877" y1="208.8926" y2="213.8926"/><line style="stroke:#181818;stroke-width:1;" x1="162.3877" x2="474.1826" y1="213.8926" y2="213.8926"/><line style="stroke:#181818;stroke-width:1;" x1="474.1826" x2="474.1826" y1="213.8926" y2="228.8926"/><polygon fill="#181818" points="470.1826,218.8926,474.1826,228.8926,478.1826,218.8926,474.1826,222.8926" style="stroke:#181818;stroke-width:1;"/><line style="stroke:#181818;stroke-width:1;" x1="474.1826" x2="474.1826" y1="319.0801" y2="324.0801"/><line style="stroke:#181818;stroke-width:1;" x1="474.1826" x2="778.9482" y1="324.0801" y2="324.0801"/><line style="stroke:#181818;stroke-width:1;" x1="778.9482" x2="778.9482" y1="324.0801" y2="339.0801"/><polygon fill="#181818" points="774.9482,329.0801,778.9482,339.0801,782.9482,329.0801,778.9482,333.0801" style="stroke:#181818;stroke-width:1;"/><line style="stroke:#181818;stroke-width:1;" x1="778.9482" x2="778.9482" y1="484.3613" y2="489.3613"/><line style="stroke:#181818;stroke-width:1;" x1="778.9482" x2="474.1826" y1="489.3613" y2="489.3613"/><line style="stroke:#181818;stroke-width:1;" x1="474.1826" x2="474.1826" y1="489.3613" y2="504.3613"/><polygon fill="#181818" points="470.1826,494.3613,474.1826,504.3613,478.1826,494.3613,474.1826,498.3613" style="stroke:#181818;stroke-width:1;"/><line style="stroke:#181818;stroke-width:1;" x1="474.1826" x2="474.1826" y1="594.5488" y2="599.5488"/><line style="stroke:#181818;stroke-width:1;" x1="474.1826" x2="778.9482" y1="599.5488" y2="599.5488"/><line style="stroke:#181818;stroke-width:1;" x1="778.9482" x2="778.9482" y1="599.5488" y2="614.5488"/><polygon fill="#181818" points="774.9482,604.5488,778.9482,614.5488,782.9482,604.5488,778.9482,608.5488" style="stroke:#181818;stroke-width:1;"/><line style="stroke:#181818;stroke-width:1;" x1="778.9482" x2="778.9482" y1="748.7363" y2="753.7363"/><line style="stroke:#181818;stroke-width:1;" x1="778.9482" x2="474.1826" y1="753.7363" y2="753.7363"/><line style="stroke:#181818;stroke-width:1;" x1="474.1826" x2="474.1826" y1="753.7363" y2="768.7363"/><polygon fill="#181818" points="470.1826,758.7363,474.1826,768.7363,478.1826,758.7363,474.1826,762.7363" style="stroke:#181818;stroke-width:1;"/><line style="stroke:#181818;stroke-width:1;" x1="474.1826" x2="474.1826" y1="1169.9473" y2="1174.9473"/><line style="stroke:#181818;stroke-width:1;" x1="474.1826" x2="778.9482" y1="1174.9473" y2="1174.9473"/><line style="stroke:#181818;stroke-width:1;" x1="778.9482" x2="778.9482" y1="1174.9473" y2="1189.9473"/><polygon fill="#181818" points="774.9482,1179.9473,778.9482,1189.9473,782.9482,1179.9473,778.9482,1183.9473" style="stroke:#181818;stroke-width:1;"/><line style="stroke:#181818;stroke-width:1;" x1="778.9482" x2="778.9482" y1="1324.1348" y2="1329.1348"/><line style="stroke:#181818;stroke-width:1;" x1="778.9482" x2="474.1826" y1="1329.1348" y2="1329.1348"/><line style="stroke:#181818;stroke-width:1;" x1="474.1826" x2="474.1826" y1="1329.1348" y2="1344.1348"/><polygon fill="#181818" points="470.1826,1334.1348,474.1826,1344.1348,478.1826,1334.1348,474.1826,1338.1348" style="stroke:#181818;stroke-width:1;"/><line style="stroke:#181818;stroke-width:1;" x1="474.1826" x2="474.1826" y1="1434.3223" y2="1439.3223"/><line style="stroke:#181818;stroke-width:1;" x1="474.1826" x2="162.3877" y1="1439.3223" y2="1439.3223"/><line style="stroke:#181818;stroke-width:1;" x1="162.3877" x2="162.3877" y1="1439.3223" y2="1454.3223"/><polygon fill="#181818" points="158.3877,1444.3223,162.3877,1454.3223,166.3877,1444.3223,162.3877,1448.3223" style="stroke:#181818;stroke-width:1;"/><text fill="#000000" font-family="sans-serif" font-size="18" lengthAdjust="spacing" textLength="79.0488" x="121.8633" y="69.75">Pet sahibi</text><text fill="#000000" font-family="sans-serif" font-size="18" lengthAdjust="spacing" textLength="67.0166" x="446.1646" y="69.75">Platform</text><text fill="#000000" font-family="sans-serif" font-size="18" lengthAdjust="spacing" textLength="56.0039" x="764.4463" y="69.75">Walker</text><!--SRC=[XLIxRjj04Epv5LlQY0BrKX4uRy257ST0u79bhQJDlOYxemmIAl8HwLMgLgEAtL4_aY_97YbR0O8WXI2As9sTdPrHvAW9RZ4o_Fhn4xwXLkJXCpU68e_W7LhTxU5JQjTaDIjO4znehE4X7QnK62w2ObkYHmDXXNFtn7O92zI1YiqjHGYuuXblYX3Hns8YhqOGKkjf1Dv5X4Z-aLUSWTEX8GtMHOrUXWPAksankTBalmkLEQuzscv_t8uWOZ2OM_2HDIW-RXbch9SSs3BCNRVrbSQfCD0O5ywRJJ5vVtfhJSQ0fs7JLx3gTuLPEkWb1POtLRsihAuKq76hvHFP2uyxQiYlCTJEvidA-SfW5YSTvcG8dAwaj9BIpQ2YpBn7JRD-DoF4J6LWIPwKPYZpo1V6otJ88wvnLccWA8_t53GRG2rxtjpVmXY-tFrZiRSeDD4kkttQGOCcYpGmj9MfG64zxo6lysyeiTRIqEr51k2qOtjIu7L_5Q66QTVj5SW96WHKaGKh0vpNUf3ArDQfFMvJ2xD-lXHuAWbZ0QT9u-7Eycqeu89aozO-ajOqBU2F1M3o5Kk38m7gyY9HY2cvX3Rv73AyQYeXYI8SnS1Djg7i5htJgHKeNi357GSb5y2wsx-vXBWY2nSVrXGl2u39oTI2LBuOqWfidMqc03t2LNQIuR-wON9rzjXOGCImqktbsPNa1pzGKAZxnshQz_GPoSgVJf5l4eVZW6WkFizUoxLavxmedhzUD1wqXASLIpmlXZpsUehkpWjB3iyS9nzTpCR0nLYo0s8loZFZu23hbAIbsrk4kMJsRAt_kOeZvwZr8St9Z7pUP0YeIUrA6ELxdauUKMLjMSfAOI_rNlIoaKMZqcc1L3qNQSuX6sR-yISXWJ5eSaRp9S7PR5PXAOqU6t6XFDSvUBapH5V-1W00]--></g></svg>