<svg xmlns="http://www.w3.org/2000/svg" xmlns:xlink="http://www.w3.org/1999/xlink" contentStyleType="text/css" height="1092px" preserveAspectRatio="none" style="width:1237px;height:1092px;background:#FFFFFF;" version="1.1" viewBox="0 0 1237 1092" width="1237px" zoomAndPan="magnify"><title>Pati &#8212; Sigorta Teklif Y&#246;nlendirmesi ve Veri Payla&#351;&#305;m R&#305;zas&#305;</title><defs/><g><text fill="#000000" font-family="sans-serif" font-size="14" font-weight="bold" lengthAdjust="spacing" textLength="396.0332" x="419.4795" y="34.5332">Pati &#8212; Sigorta Teklif Y&#246;nlendirmesi ve Veri Payla&#351;&#305;m R&#305;zas&#305;</text><rect fill="none" height="22.6406" style="stroke:none;stroke-width:1;" width="1204.9922" x="15" y="51.0645"/><ellipse cx="115.0381" cy="88.7051" fill="#222222" rx="10" ry="10" style="stroke:#222222;stroke-width:1;"/><rect fill="#F1F1F1" height="35.0938" rx="12.5" ry="12.5" style="stroke:#181818;stroke-width:0.5;" width="154.7305" x="37.6729" y="118.7051"/><text fill="#000000" font-family="sans-serif" font-size="12" lengthAdjust="spacing" textLength="134.7305" x="47.6729" y="141.1621">Sigorta ilgisini ve peti se&#231;</text><rect fill="#F1F1F1" height="35.0938" rx="12.5" ry="12.5" style="stroke:#181818;stroke-width:0.5;" width="188.0762" x="21" y="703.6426"/><text fill="#000000" font-family="sans-serif" font-size="12" lengthAdjust="spacing" textLength="168.0762" x="31" y="726.0996">Teklifi incele ve sa&#287;lay&#305;c&#305;ya ge&#231;</text><line style="stroke:#000000;stroke-width:1.5;" x1="15" x2="15" y1="51.0645" y2="1080.9902"/><rect fill="#F1F1F1" height="35.0938" rx="12.5" ry="12.5" style="stroke:#181818;stroke-width:0.5;" width="398.1582" x="373.3101" y="173.7988"/><text fill="#000000" font-family="sans-serif" font-size="12" lengthAdjust="spacing" textLength="378.1582" x="383.3101" y="196.2559">Kapsam, istisna, bekleme s&#252;resi ve &#8220;arac&#305;l&#305;k/y&#246;nlendirme&#8221; rol&#252;n&#252; a&#231;&#305;kla</text><rect fill="#F1F1F1" height="35.0938" rx="12.5" ry="12.5" style="stroke:#181818;stroke-width:0.5;" width="205.4258" x="469.6763" y="228.8926"/><text fill="#000000" font-family="sans-serif" font-size="12" lengthAdjust="spacing" textLength="185.4258" x="479.6763" y="251.3496">Payla&#351;&#305;lacak alanlar&#305; tek tek g&#246;ster</text><polygon fill="#F1F1F1" points="524.7126,283.9863,620.0657,283.9863,632.0657,295.9863,620.0657,307.9863,524.7126,307.9863,512.7126,295.9863,524.7126,283.9863" style="stroke:#181818;stroke-width:0.5;"/><text fill="#000000" font-family="sans-serif" font-size="11" lengthAdjust="spacing" textLength="95.353" x="524.7126" y="300.4873">A&#231;&#305;k r&#305;za verildi mi?</text><text fill="#000000" font-family="sans-serif" font-size="11" lengthAdjust="spacing" textLength="22.0107" x="490.7019" y="293.5693">Evet</text><text fill="#000000" font-family="sans-serif" font-size="11" lengthAdjust="spacing" textLength="26.2808" x="632.0657" y="293.5693">Hay&#305;r</text><rect fill="#F1F1F1" height="35.0938" rx="12.5" ry="12.5" style="stroke:#181818;stroke-width:0.5;" width="374.8145" x="219.0762" y="317.9863"/><text fill="#000000" font-family="sans-serif" font-size="12" lengthAdjust="spacing" textLength="354.8145" x="229.0762" y="340.4434">Ama&#231;, sa&#287;lay&#305;c&#305;, alan listesi, s&#252;re ve politika s&#252;r&#252;m&#252;yle r&#305;za kaydet</text><rect fill="#F1F1F1" height="35.0938" rx="12.5" ry="12.5" style="stroke:#181818;stroke-width:0.5;" width="314.0996" x="249.4336" y="373.0801"/><text fill="#000000" font-family="sans-serif" font-size="12" lengthAdjust="spacing" textLength="294.0996" x="259.4336" y="395.5371">Pet ya&#351;&#305;/t&#252;r&#252;/&#305;rk&#305; ve izinli minimum sa&#287;l&#305;k &#246;zetini haz&#305;rla</text><rect fill="#F1F1F1" height="35.0938" rx="12.5" ry="12.5" style="stroke:#181818;stroke-width:0.5;" width="181.3906" x="315.7881" y="428.1738"/><text fill="#000000" font-family="sans-serif" font-size="12" lengthAdjust="spacing" textLength="161.3906" x="325.7881" y="450.6309">Tek kullan&#305;ml&#305;k referral_id &#252;ret</text><rect fill="#F1F1F1" height="35.0938" rx="12.5" ry="12.5" style="stroke:#181818;stroke-width:0.5;" width="248.8086" x="613.8906" y="317.9863"/><text fill="#000000" font-family="sans-serif" font-size="12" lengthAdjust="spacing" textLength="228.8086" x="623.8906" y="340.4434">Veri g&#246;ndermeden genel &#252;r&#252;n bilgisi g&#246;ster</text><ellipse cx="738.2949" cy="384.0801" fill="none" rx="11" ry="11" style="stroke:#222222;stroke-width:1;"/><ellipse cx="738.2949" cy="384.0801" fill="#222222" rx="6" ry="6" style="stroke:#222222;stroke-width:1;"/><rect fill="#F1F1F1" height="35.0938" rx="12.5" ry="12.5" style="stroke:#181818;stroke-width:0.5;" width="226.0918" x="459.3433" y="593.4551"/><text fill="#000000" font-family="sans-serif" font-size="12" lengthAdjust="spacing" textLength="206.0918" x="469.3433" y="615.9121">Teklifleri standart alanlara normalize et</text><rect fill="#F1F1F1" height="35.0938" rx="12.5" ry="12.5" style="stroke:#181818;stroke-width:0.5;" width="195.4355" x="474.6714" y="648.5488"/><text fill="#000000" font-family="sans-serif" font-size="12" lengthAdjust="spacing" textLength="175.4355" x="484.6714" y="671.0059">Sponsorlu sonucu a&#231;&#305;k&#231;a etiketle</text><rect fill="#F1F1F1" height="35.0938" rx="12.5" ry="12.5" style="stroke:#181818;stroke-width:0.5;" width="274.8008" x="434.9888" y="758.7363"/><text fill="#000000" font-family="sans-serif" font-size="12" lengthAdjust="spacing" textLength="254.8008" x="444.9888" y="781.1934">D&#246;n&#252;&#351;&#252;m durumunu yaln&#305;z izin verilen &#246;l&#231;&#252;de al</text><rect fill="#F1F1F1" height="35.0938" rx="12.5" ry="12.5" style="stroke:#181818;stroke-width:0.5;" width="170.0645" x="487.3569" y="862.748"/><text fill="#000000" font-family="sans-serif" font-size="12" lengthAdjust="spacing" textLength="150.0645" x="497.3569" y="885.2051">Gelecek payla&#351;&#305;mlar&#305; durdur</text><rect fill="#F1F1F1" height="35.0938" rx="12.5" ry="12.5" style="stroke:#181818;stroke-width:0.5;" width="273.4297" x="435.6743" y="932.8418"/><text fill="#000000" font-family="sans-serif" font-size="12" lengthAdjust="spacing" textLength="253.4297" x="445.6743" y="955.2988">Sa&#287;lay&#305;c&#305;ya silme/i&#351;lem k&#305;s&#305;tlama sinyali g&#246;nder</text><polygon fill="#F1F1F1" points="524.7019,813.8301,620.0764,813.8301,632.0764,825.8301,620.0764,837.8301,524.7019,837.8301,512.7019,825.8301,524.7019,813.8301" style="stroke:#181818;stroke-width:0.5;"/><text fill="#000000" font-family="sans-serif" font-size="11" lengthAdjust="spacing" textLength="22.0107" x="576.3892" y="849.249">Evet</text><text fill="#000000" font-family="sans-serif" font-size="11" lengthAdjust="spacing" textLength="95.3745" x="524.7019" y="830.3311">R&#305;za geri al&#305;nd&#305; m&#305;?</text><polygon fill="#F1F1F1" points="572.3892,987.9355,584.3892,999.9355,572.3892,1011.9355,560.3892,999.9355,572.3892,987.9355" style="stroke:#181818;stroke-width:0.5;"/><path d="M603.3892,1021.9355 L603.3892,1047.4629 L583.3892,1051.4629 L603.3892,1055.4629 L603.3892,1080.9902 A0,0 0 0 0 603.3892,1080.9902 L948.0562,1080.9902 A0,0 0 0 0 948.0562,1080.9902 L948.0562,1031.9355 L938.0562,1021.9355 L603.3892,1021.9355 A0,0 0 0 0 603.3892,1021.9355 " fill="#FEFFDD" style="stroke:#181818;stroke-width:0.5;"/><path d="M938.0562,1021.9355 L938.0562,1031.9355 L948.0562,1031.9355 L938.0562,1021.9355 " fill="#FEFFDD" style="stroke:#181818;stroke-width:0.5;"/><text fill="#000000" font-family="sans-serif" font-size="13" lengthAdjust="spacing" textLength="247.8188" x="609.3892" y="1040.4307">Sa&#287;l&#305;k verisi varsay&#305;lan olarak payla&#351;&#305;lmaz.</text><text fill="#000000" font-family="sans-serif" font-size="13" lengthAdjust="spacing" textLength="323.667" x="609.3892" y="1056.7822">Fiyat kar&#351;&#305;la&#351;t&#305;rmas&#305; ile lisans gerektiren sigorta arac&#305;l&#305;&#287;&#305;</text><text fill="#000000" font-family="sans-serif" font-size="13" lengthAdjust="spacing" textLength="231.9307" x="609.3892" y="1073.1338">hukuki de&#287;erlendirmede ayr&#305;&#351;t&#305;r&#305;lmal&#305;d&#305;r.</text><ellipse cx="572.3892" cy="1051.4629" fill="none" rx="11" ry="11" style="stroke:#222222;stroke-width:1;"/><ellipse cx="572.3892" cy="1051.4629" fill="#222222" rx="6" ry="6" style="stroke:#222222;stroke-width:1;"/><line style="stroke:#000000;stroke-width:1.5;" x1="213.0762" x2="213.0762" y1="51.0645" y2="1080.9902"/><rect fill="#F1F1F1" height="35.0938" rx="12.5" ry="12.5" style="stroke:#181818;stroke-width:0.5;" width="159.3887" x="1007.0796" y="483.2676"/><text fill="#000000" font-family="sans-serif" font-size="12" lengthAdjust="spacing" textLength="139.3887" x="1017.0796" y="505.7246">Referral ile teklif iste&#287;ini al</text><rect fill="#F1F1F1" height="35.0938" rx="12.5" ry="12.5" style="stroke:#181818;stroke-width:0.5;" width="255.4355" x="959.0562" y="538.3613"/><text fill="#000000" font-family="sans-serif" font-size="12" lengthAdjust="spacing" textLength="235.4355" x="969.0562" y="560.8184">Teklif, kapsam, fiyat ve son ge&#231;erlilik g&#246;nder</text><line style="stroke:#000000;stroke-width:1.5;" x1="953.0562" x2="953.0562" y1="51.0645" y2="1080.9902"/><line style="stroke:#000000;stroke-width:1.5;" x1="1218.4917" x2="1218.4917" y1="51.0645" y2="1080.9902"/><line style="stroke:#181818;stroke-width:1;" x1="115.0381" x2="115.0381" y1="98.7051" y2="118.7051"/><polygon fill="#181818" points="111.0381,108.7051,115.0381,118.7051,119.0381,108.7051,115.0381,112.7051" style="stroke:#181818;stroke-width:1;"/><line style="stroke:#181818;stroke-width:1;" x1="572.3892" x2="572.3892" y1="208.8926" y2="228.8926"/><polygon fill="#181818" points="568.3892,218.8926,572.3892,228.8926,576.3892,218.8926,572.3892,222.8926" style="stroke:#181818;stroke-width:1;"/><line style="stroke:#181818;stroke-width:1;" x1="406.4834" x2="406.4834" y1="353.0801" y2="373.0801"/><polygon fill="#181818" points="402.4834,363.0801,406.4834,373.0801,410.4834,363.0801,406.4834,367.0801" style="stroke:#181818;stroke-width:1;"/><line style="stroke:#181818;stroke-width:1;" x1="406.4834" x2="406.4834" y1="408.1738" y2="428.1738"/><polygon fill="#181818" points="402.4834,418.1738,406.4834,428.1738,410.4834,418.1738,406.4834,422.1738" style="stroke:#181818;stroke-width:1;"/><line style="stroke:#181818;stroke-width:1;" x1="738.2949" x2="738.2949" y1="353.0801" y2="373.0801"/><polygon fill="#181818" points="734.2949,363.0801,738.2949,373.0801,742.2949,363.0801,738.2949,367.0801" style="stroke:#181818;stroke-width:1;"/><line style="stroke:#181818;stroke-width:1;" x1="512.7126" x2="406.4834" y1="295.9863" y2="295.9863"/><line style="stroke:#181818;stroke-width:1;" x1="406.4834" x2="406.4834" y1="295.9863" y2="317.9863"/><polygon fill="#181818" points="402.4834,307.9863,406.4834,317.9863,410.4834,307.9863,406.4834,311.9863" style="stroke:#181818;stroke-width:1;"/><line style="stroke:#181818;stroke-width:1;" x1="632.0657" x2="738.2949" y1="295.9863" y2="295.9863"/><line style="stroke:#181818;stroke-width:1;" x1="738.2949" x2="738.2949" y1="295.9863" y2="317.9863"/><polygon fill="#181818" points="734.2949,307.9863,738.2949,317.9863,742.2949,307.9863,738.2949,311.9863" style="stroke:#181818;stroke-width:1;"/><line style="stroke:#181818;stroke-width:1;" x1="406.4834" x2="406.4834" y1="463.2676" y2="468.2676"/><line style="stroke:#181818;stroke-width:1;" x1="406.4834" x2="1086.7739" y1="468.2676" y2="468.2676"/><line style="stroke:#181818;stroke-width:1;" x1="1086.7739" x2="1086.7739" y1="468.2676" y2="483.2676"/><polygon fill="#181818" points="1082.7739,473.2676,1086.7739,483.2676,1090.7739,473.2676,1086.7739,477.2676" style="stroke:#181818;stroke-width:1;"/><line style="stroke:#181818;stroke-width:1;" x1="572.3892" x2="572.3892" y1="263.9863" y2="283.9863"/><polygon fill="#181818" points="568.3892,273.9863,572.3892,283.9863,576.3892,273.9863,572.3892,277.9863" style="stroke:#181818;stroke-width:1;"/><line style="stroke:#181818;stroke-width:1;" x1="572.3892" x2="572.3892" y1="628.5488" y2="648.5488"/><polygon fill="#181818" points="568.3892,638.5488,572.3892,648.5488,576.3892,638.5488,572.3892,642.5488" style="stroke:#181818;stroke-width:1;"/><line style="stroke:#181818;stroke-width:1;" x1="572.3892" x2="572.3892" y1="897.8418" y2="932.8418"/><polygon fill="#181818" points="568.3892,922.8418,572.3892,932.8418,576.3892,922.8418,572.3892,926.8418" style="stroke:#181818;stroke-width:1;"/><line style="stroke:#181818;stroke-width:1;" x1="572.3892" x2="572.3892" y1="837.8301" y2="862.748"/><polygon fill="#181818" points="568.3892,852.748,572.3892,862.748,576.3892,852.748,572.3892,856.748" style="stroke:#181818;stroke-width:1;"/><line style="stroke:#181818;stroke-width:1;" x1="632.0764" x2="719.104" y1="825.8301" y2="825.8301"/><polygon fill="#181818" points="715.104,905.3418,719.104,915.3418,723.104,905.3418,719.104,909.3418" style="stroke:#181818;stroke-width:1;"/><line style="stroke:#181818;stroke-width:1;" x1="719.104" x2="719.104" y1="825.8301" y2="999.9355"/><line style="stroke:#181818;stroke-width:1;" x1="719.104" x2="584.3892" y1="999.9355" y2="999.9355"/><polygon fill="#181818" points="594.3892,995.9355,584.3892,999.9355,594.3892,1003.9355,590.3892,999.9355" style="stroke:#181818;stroke-width:1;"/><line style="stroke:#181818;stroke-width:1;" x1="572.3892" x2="572.3892" y1="967.9355" y2="987.9355"/><polygon fill="#181818" points="568.3892,977.9355,572.3892,987.9355,576.3892,977.9355,572.3892,981.9355" style="stroke:#181818;stroke-width:1;"/><line style="stroke:#181818;stroke-width:1;" x1="572.3892" x2="572.3892" y1="793.8301" y2="813.8301"/><polygon fill="#181818" points="568.3892,803.8301,572.3892,813.8301,576.3892,803.8301,572.3892,807.8301" style="stroke:#181818;stroke-width:1;"/><line style="stroke:#181818;stroke-width:1;" x1="572.3892" x2="572.3892" y1="1011.9355" y2="1040.4629"/><polygon fill="#181818" points="568.3892,1030.4629,572.3892,1040.4629,576.3892,1030.4629,572.3892,1034.4629" style="stroke:#181818;stroke-width:1;"/><line style="stroke:#181818;stroke-width:1;" x1="1086.7739" x2="1086.7739" y1="518.3613" y2="538.3613"/><polygon fill="#181818" points="1082.7739,528.3613,1086.7739,538.3613,1090.7739,528.3613,1086.7739,532.3613" style="stroke:#181818;stroke-width:1;"/><line style="stroke:#181818;stroke-width:1;" x1="115.0381" x2="115.0381" y1="153.7988" y2="158.7988"/><line style="stroke:#181818;stroke-width:1;" x1="115.0381" x2="572.3892" y1="158.7988" y2="158.7988"/><line style="stroke:#181818;stroke-width:1;" x1="572.3892" x2="572.3892" y1="158.7988" y2="173.7988"/><polygon fill="#181818" points="568.3892,163.7988,572.3892,173.7988,576.3892,163.7988,572.3892,167.7988" style="stroke:#181818;stroke-width:1;"/><line style="stroke:#181818;stroke-width:1;" x1="1086.7739" x2="1086.7739" y1="573.4551" y2="578.4551"/><line style="stroke:#181818;stroke-width:1;" x1="1086.7739" x2="572.3892" y1="578.4551" y2="578.4551"/><line style="stroke:#181818;stroke-width:1;" x1="572.3892" x2="572.3892" y1="578.4551" y2="593.4551"/><polygon fill="#181818" points="568.3892,583.4551,572.3892,593.4551,576.3892,583.4551,572.3892,587.4551" style="stroke:#181818;stroke-width:1;"/><line style="stroke:#181818;stroke-width:1;" x1="572.3892" x2="572.3892" y1="683.6426" y2="688.6426"/><line style="stroke:#181818;stroke-width:1;" x1="572.3892" x2="115.0381" y1="688.6426" y2="688.6426"/><line style="stroke:#181818;stroke-width:1;" x1="115.0381" x2="115.0381" y1="688.6426" y2="703.6426"/><polygon fill="#181818" points="111.0381,693.6426,115.0381,703.6426,119.0381,693.6426,115.0381,697.6426" style="stroke:#181818;stroke-width:1;"/><line style="stroke:#181818;stroke-width:1;" x1="115.0381" x2="115.0381" y1="738.7363" y2="743.7363"/><line style="stroke:#181818;stroke-width:1;" x1="115.0381" x2="572.3892" y1="743.7363" y2="743.7363"/><line style="stroke:#181818;stroke-width:1;" x1="572.3892" x2="572.3892" y1="743.7363" y2="758.7363"/><polygon fill="#181818" points="568.3892,748.7363,572.3892,758.7363,576.3892,748.7363,572.3892,752.7363" style="stroke:#181818;stroke-width:1;"/><text fill="#000000" font-family="sans-serif" font-size="18" lengthAdjust="spacing" textLength="69.0381" x="79.519" y="69.75">Kullan&#305;c&#305;</text><text fill="#000000" font-family="sans-serif" font-size="18" lengthAdjust="spacing" textLength="67.0166" x="549.5579" y="69.75">Platform</text><text fill="#000000" font-family="sans-serif" font-size="18" lengthAdjust="spacing" textLength="150.0732" x="1010.7373" y="69.75">Sigorta Sa&#287;lay&#305;c&#305;s&#305;</text><!--SRC=[PPI_RXf14CRxUuefRGd5FHIHfVoJt5WcYfGg6dCBZ7Ps3-tkEJf4uOT8cOYI-XegkZk_Y9yaCtjWuqI2XjsT-SttVKEYn0PkCH4yF_w2AIsga12-6iiqX-_TthFn9GLd8i63WMyca5nl69-sVUlWhc_N6FksY9Ry2WCwY4iigv_a5p17ZgROtDJCwFjsrhUR8YOCgHYV6X4lA9BFjLT6AABfTfDYSykOvbLmcs9yWwk8RWGK4qMF8xWNEECCnEuGZbZFZx-bjpJWlhLNpHdsy-CV21Lt1zyT0BkTd3DEYl7B38mpj812o1Zw5fAn-RlezZ6PC2b4Xulh_122JYlz0d59uEZz9QIbyN3nyS6aomB6rqvQZ21YlsLiyiYZN1jOy0LsD53dSIkcH1RpBzt1TOT6h1XQM6nAaoPIyTOaQ3BeLShthlesME6K2hGcpyhXoTLkwAgOtNujKegeIrpBRPqNnc8fsACJBbyBPcv2GFv19IYKz3DY65nyKVIWysIxHGbV6j6ob54NnXk6JEBXVh3lLIk8gLeLAlsys9mydfwf4JK3uxjZPx7VgDYQDTMdtoerilWp970aIWpkpwd1f4F7IY6wdGbCJFP4zpOpmsjMUWcSBoLp9uiHlDn1fhK17NayNLK-Le5hBLtFwcDAkXtAELaZ2pBv9yJ7-WJaPuQpc-UMDvW9to9z4CxkyBGLfw6iG-rgNukpB3NNsSaXLo9nj-TkrnrAavNG-EKjavf1nUbRNuh_hc__YzzdWPc9pwkN1HqoBVtaeocOliMCnCvSqTDM5WfijYSnEZtmmaQlwWwUPdjzbIIdj5YcOdgAdBBhAcA8MbqJNwdOPopiSFsk-9Hzj1Y6tNlQ9ecQqx-G70PP4_HHHpKsKP3XuZ55B_lToyDYMTlQ4fGI6Gd2STTLiKRc7OhcZd9Vn0hlb1yK_2y0]--></g></svg>