<svg xmlns="http://www.w3.org/2000/svg" xmlns:xlink="http://www.w3.org/1999/xlink" contentStyleType="text/css" height="1120px" preserveAspectRatio="none" style="width:875px;height:1120px;background:#FFFFFF;" version="1.1" viewBox="0 0 875 1120" width="875px" zoomAndPan="magnify"><title>Pati &#8212; Arama, Filtreleme ve A&#231;&#305;klanabilir S&#305;ralama</title><defs/><g><text fill="#000000" font-family="sans-serif" font-size="14" font-weight="bold" lengthAdjust="spacing" textLength="334.5918" x="263.6253" y="24.5332">Pati &#8212; Arama, Filtreleme ve A&#231;&#305;klanabilir S&#305;ralama</text><!--entity Kullan?c?--><g id="elem_Kullan&#305;c&#305;"><ellipse cx="153.9981" cy="52.6094" fill="#F1F1F1" rx="8" ry="8" style="stroke:#181818;stroke-width:0.5;"/><path d="M153.9981,60.6094 L153.9981,87.6094 M140.9981,68.6094 L166.9981,68.6094 M153.9981,87.6094 L140.9981,102.6094 M153.9981,87.6094 L166.9981,102.6094 " fill="none" style="stroke:#181818;stroke-width:0.5;"/><text fill="#000000" font-family="sans-serif" font-size="14" lengthAdjust="spacing" textLength="53.6963" x="127.15" y="118.6426">Kullan&#305;c&#305;</text></g><!--entity API--><g id="elem_API"><rect fill="#F1F1F1" height="37.6094" rx="2.5" ry="2.5" style="stroke:#181818;stroke-width:0.5;" width="90.8135" x="108.65" y="200.1094"/><text fill="#000000" font-family="sans-serif" font-size="14" lengthAdjust="spacing" textLength="70.8135" x="118.65" y="224.6426">Search API</text></g><!--entity QU--><g id="elem_QU"><rect fill="#F1F1F1" height="37.6094" rx="2.5" ry="2.5" style="stroke:#181818;stroke-width:0.5;" width="153.0752" x="279.65" y="316.1094"/><text fill="#000000" font-family="sans-serif" font-size="14" lengthAdjust="spacing" textLength="133.0752" x="289.65" y="340.6426">Query Understanding</text></g><!--entity GEO--><g id="elem_GEO"><rect fill="#F1F1F1" height="37.6094" rx="2.5" ry="2.5" style="stroke:#181818;stroke-width:0.5;" width="81.4619" x="619.65" y="561.6094"/><text fill="#000000" font-family="sans-serif" font-size="14" lengthAdjust="spacing" textLength="61.4619" x="629.65" y="586.1426">Geo Filter</text></g><!--entity EL--><g id="elem_EL"><rect fill="#F1F1F1" height="37.6094" rx="2.5" ry="2.5" style="stroke:#181818;stroke-width:0.5;" width="109.4619" x="605.65" y="686.6094"/><text fill="#000000" font-family="sans-serif" font-size="14" lengthAdjust="spacing" textLength="89.4619" x="615.65" y="711.1426">Eligibility Filter</text></g><!--entity R--><g id="elem_R"><rect fill="#F1F1F1" height="37.6094" rx="2.5" ry="2.5" style="stroke:#181818;stroke-width:0.5;" width="118.8477" x="399.65" y="807.1094"/><text fill="#000000" font-family="sans-serif" font-size="14" lengthAdjust="spacing" textLength="98.8477" x="409.65" y="831.6426">Ranking Engine</text></g><!--entity IDX--><g id="elem_IDX"><path d="M558.15,442.1094 C558.15,432.1094 609.398,432.1094 609.398,432.1094 C609.398,432.1094 660.6461,432.1094 660.6461,442.1094 L660.6461,468.7188 C660.6461,478.7188 609.398,478.7188 609.398,478.7188 C609.398,478.7188 558.15,478.7188 558.15,468.7188 L558.15,442.1094 " fill="#F1F1F1" style="stroke:#181818;stroke-width:0.5;"/><path d="M558.15,442.1094 C558.15,452.1094 609.398,452.1094 609.398,452.1094 C609.398,452.1094 660.6461,452.1094 660.6461,442.1094 " fill="none" style="stroke:#181818;stroke-width:0.5;"/><text fill="#000000" font-family="sans-serif" font-size="14" lengthAdjust="spacing" textLength="82.4961" x="568.15" y="470.6426">Search Index</text></g><!--entity AV--><g id="elem_AV"><path d="M418.15,567.1094 C418.15,557.1094 500.9083,557.1094 500.9083,557.1094 C500.9083,557.1094 583.6666,557.1094 583.6666,567.1094 L583.6666,593.7188 C583.6666,603.7188 500.9083,603.7188 500.9083,603.7188 C500.9083,603.7188 418.15,603.7188 418.15,593.7188 L418.15,567.1094 " fill="#F1F1F1" style="stroke:#181818;stroke-width:0.5;"/><path d="M418.15,567.1094 C418.15,577.1094 500.9083,577.1094 500.9083,577.1094 C500.9083,577.1094 583.6666,577.1094 583.6666,567.1094 " fill="none" style="stroke:#181818;stroke-width:0.5;"/><text fill="#000000" font-family="sans-serif" font-size="14" lengthAdjust="spacing" textLength="145.5166" x="428.15" y="595.6426">Availability Read Model</text></g><!--entity TS--><g id="elem_TS"><path d="M178.15,692.1094 C178.15,682.1094 228.9981,682.1094 228.9981,682.1094 C228.9981,682.1094 279.8463,682.1094 279.8463,692.1094 L279.8463,718.7188 C279.8463,728.7188 228.9981,728.7188 228.9981,728.7188 C228.9981,728.7188 178.15,728.7188 178.15,718.7188 L178.15,692.1094 " fill="#F1F1F1" style="stroke:#181818;stroke-width:0.5;"/><path d="M178.15,692.1094 C178.15,702.1094 228.9981,702.1094 228.9981,702.1094 C228.9981,702.1094 279.8463,702.1094 279.8463,692.1094 " fill="none" style="stroke:#181818;stroke-width:0.5;"/><text fill="#000000" font-family="sans-serif" font-size="14" lengthAdjust="spacing" textLength="81.6963" x="188.15" y="720.6426">Trust Signals</text></g><!--entity CR--><g id="elem_CR"><path d="M404.15,692.1094 C404.15,682.1094 471.3292,682.1094 471.3292,682.1094 C471.3292,682.1094 538.5084,682.1094 538.5084,692.1094 L538.5084,718.7188 C538.5084,728.7188 471.3292,728.7188 471.3292,728.7188 C471.3292,728.7188 404.15,728.7188 404.15,718.7188 L404.15,692.1094 " fill="#F1F1F1" style="stroke:#181818;stroke-width:0.5;"/><path d="M404.15,692.1094 C404.15,702.1094 471.3292,702.1094 471.3292,702.1094 C471.3292,702.1094 538.5084,702.1094 538.5084,692.1094 " fill="none" style="stroke:#181818;stroke-width:0.5;"/><text fill="#000000" font-family="sans-serif" font-size="14" lengthAdjust="spacing" textLength="114.3584" x="414.15" y="720.6426">Commercial Rules</text></g><!--entity EX--><g id="elem_EX"><rect fill="#F1F1F1" height="37.6094" rx="2.5" ry="2.5" style="stroke:#181818;stroke-width:0.5;" width="140.6338" x="55.65" y="1049.1094"/><text fill="#000000" font-family="sans-serif" font-size="14" lengthAdjust="spacing" textLength="120.6338" x="65.65" y="1073.6426">Explanation Builder</text></g><!--entity AB--><g id="elem_AB"><rect fill="#F1F1F1" height="37.6094" rx="2.5" ry="2.5" style="stroke:#181818;stroke-width:0.5;" width="152.2754" x="371.15" y="923.1094"/><text fill="#000000" font-family="sans-serif" font-size="14" lengthAdjust="spacing" textLength="132.2754" x="381.15" y="947.6426">Experiment Guardrail</text></g><g id="elem_GMN27"><path d="M231.65,1022.1094 L231.65,1113.8672 A0,0 0 0 0 231.65,1113.8672 L662.3658,1113.8672 A0,0 0 0 0 662.3658,1113.8672 L662.3658,1032.1094 L652.3658,1022.1094 L451.15,1022.1094 L447.15,961.1394 L443.15,1022.1094 L231.65,1022.1094 A0,0 0 0 0 231.65,1022.1094 " fill="#FEFFDD" style="stroke:#181818;stroke-width:0.5;"/><path d="M652.3658,1022.1094 L652.3658,1032.1094 L662.3658,1032.1094 L652.3658,1022.1094 " fill="#FEFFDD" style="stroke:#181818;stroke-width:0.5;"/><text fill="#000000" font-family="sans-serif" font-size="13" lengthAdjust="spacing" textLength="372.0996" x="237.65" y="1040.6045">&#214;rnek organik skor: uygunluk, mesafe, ger&#231;ek zamanl&#305; m&#252;saitlik,</text><text fill="#000000" font-family="sans-serif" font-size="13" lengthAdjust="spacing" textLength="289.0278" x="237.65" y="1056.9561">Bayes-d&#252;zeltilmi&#351; puan, yan&#305;t s&#252;resi ve iptal oran&#305;.</text><text fill="#000000" font-family="sans-serif" font-size="13" lengthAdjust="spacing" textLength="409.7158" x="237.65" y="1073.3076">Sponsorlu sonu&#231; g&#252;ven/uygunluk filtresini a&#351;amaz ve a&#231;&#305;k&#231;a etiketlenir.</text><text fill="#000000" font-family="sans-serif" font-size="13" lengthAdjust="spacing" textLength="321.5405" x="237.65" y="1089.6592">Irk/t&#252;r gibi alanlar yaln&#305;z hizmet uygunlu&#287;u i&#231;in kullan&#305;l&#305;r;</text><text fill="#000000" font-family="sans-serif" font-size="13" lengthAdjust="spacing" textLength="313.5869" x="237.65" y="1106.0107">haks&#305;z ayr&#305;mc&#305;l&#305;k ve self-preference d&#252;zenli denetlenir.</text></g><!--link Kullan?c? to API--><g id="link_Kullan&#305;c&#305;_API"><path d="M126.96,90.6994 C83.53,102.5794 6,130.1294 33.15,170.1094 C49.97,194.8794 75.9259,205.5998 102.7159,211.3998 " fill="none" id="Kullan&#305;c&#305;-to-API" style="stroke:#181818;stroke-width:1;"/><polygon fill="#181818" points="108.58,212.6694,100.6302,206.8556,103.6932,211.6114,98.9374,214.6744,108.58,212.6694" style="stroke:#181818;stroke-width:1;"/><text fill="#000000" font-family="sans-serif" font-size="13" lengthAdjust="spacing" textLength="211.7197" x="34.15" y="166.6045">metin + pet + konum + zaman + filtre</text></g><!--link API to Kullan?c?--><g id="link_API_Kullan&#305;c&#305;"><path d="M199.68,206.8694 C218.72,199.6794 238.98,188.1794 250.15,170.1094 C271.09,136.2294 222.0683,110.124 186.8583,95.994 " fill="none" id="API-to-Kullan&#305;c&#305;" style="stroke:#181818;stroke-width:1;"/><polygon fill="#181818" points="181.29,93.7594,188.1528,100.8235,185.9303,95.6216,191.1323,93.3991,181.29,93.7594" style="stroke:#181818;stroke-width:1;"/></g><!--link API to QU--><g id="link_API_QU"><path d="M186.16,238.1694 C223.87,259.4594 280.9345,291.6607 318.7345,312.9907 " fill="none" id="API-to-QU" style="stroke:#181818;stroke-width:1;"/><polygon fill="#181818" points="323.96,315.9394,318.0876,308.0328,319.6054,313.4822,314.156,315,323.96,315.9394" style="stroke:#181818;stroke-width:1;"/><text fill="#000000" font-family="sans-serif" font-size="13" lengthAdjust="spacing" textLength="171.9644" x="269.15" y="282.6045">kategori/niyet/yaz&#305;m d&#252;zeltme</text></g><!--link QU to IDX--><g id="link_QU_IDX"><path d="M394.85,354.2394 C439.42,375.1094 507.2567,406.8839 555.4967,429.4839 " fill="none" id="QU-to-IDX" style="stroke:#181818;stroke-width:1;"/><polygon fill="#181818" points="560.93,432.0294,554.477,424.589,556.4023,429.9082,551.0831,431.8334,560.93,432.0294" style="stroke:#181818;stroke-width:1;"/><text fill="#000000" font-family="sans-serif" font-size="13" lengthAdjust="spacing" textLength="57.0908" x="491.15" y="398.6045">aday getir</text></g><!--link IDX to GEO--><g id="link_IDX_GEO"><path d="M618.5,479.1694 C628.34,502.8894 641.3097,534.1978 650.3797,556.0478 " fill="none" id="IDX-to-GEO" style="stroke:#181818;stroke-width:1;"/><polygon fill="#181818" points="652.68,561.5894,652.9239,551.7435,650.7631,556.9714,645.5352,554.8106,652.68,561.5894" style="stroke:#181818;stroke-width:1;"/><text fill="#000000" font-family="sans-serif" font-size="13" lengthAdjust="spacing" textLength="123.5571" x="638.15" y="523.6045">mesafe / hizmet alan&#305;</text></g><!--link GEO to EL--><g id="link_GEO_EL"><path d="M660.15,599.7594 C660.15,623.0094 660.15,657.0994 660.15,680.3894 " fill="none" id="GEO-to-EL" style="stroke:#181818;stroke-width:1;"/><polygon fill="#181818" points="660.15,686.3894,664.15,677.3894,660.15,681.3894,656.15,677.3894,660.15,686.3894" style="stroke:#181818;stroke-width:1;"/><text fill="#000000" font-family="sans-serif" font-size="13" lengthAdjust="spacing" textLength="206.6924" x="661.15" y="648.6045">aktif + do&#287;rulanm&#305;&#351; + pet uygunlu&#287;u</text></g><!--link AV to EL--><g id="link_AV_EL"><path d="M515.1,604.3994 C525.12,619.3694 539.72,638.6094 556.15,652.1094 C573.26,666.1694 589.3058,675.3091 608.3058,684.0191 " fill="none" id="AV-to-EL" style="stroke:#181818;stroke-width:1;"/><polygon fill="#181818" points="613.76,686.5194,607.2456,679.1328,609.2148,684.4358,603.9118,686.405,613.76,686.5194" style="stroke:#181818;stroke-width:1;"/><text fill="#000000" font-family="sans-serif" font-size="13" lengthAdjust="spacing" textLength="94.6689" x="557.15" y="648.6045">ger&#231;ek uygunluk</text></g><!--link EL to R--><g id="link_EL_R"><path d="M663.64,724.7494 C665.56,740.4794 665.47,762.8794 653.15,777.1094 C635.66,797.3094 574.9469,809.7114 524.6069,817.0714 " fill="none" id="EL-to-R" style="stroke:#181818;stroke-width:1;"/><polygon fill="#181818" points="518.67,817.9394,528.154,820.5953,523.6174,817.216,526.9967,812.6794,518.67,817.9394" style="stroke:#181818;stroke-width:1;"/><text fill="#000000" font-family="sans-serif" font-size="13" lengthAdjust="spacing" textLength="81.6689" x="662.15" y="773.6045">uygun adaylar</text></g><!--link TS to R--><g id="link_TS_R"><path d="M222.74,729.4294 C219.96,744.6094 219.41,764.0694 230.15,777.1094 C251.3,802.7794 333.116,814.6917 393.636,820.3417 " fill="none" id="TS-to-R" style="stroke:#181818;stroke-width:1;"/><polygon fill="#181818" points="399.61,820.8994,391.0208,816.0801,394.6316,820.4346,390.2772,824.0455,399.61,820.8994" style="stroke:#181818;stroke-width:1;"/><text fill="#000000" font-family="sans-serif" font-size="13" lengthAdjust="spacing" textLength="223.2915" x="231.15" y="773.6045">puan g&#252;veni, &#351;ik&#226;yet, iptal, yan&#305;t s&#252;resi</text></g><!--link CR to R--><g id="link_CR_R"><path d="M468.86,729.1794 C466.58,751.7394 463.7158,780.03 461.5958,800.92 " fill="none" id="CR-to-R" style="stroke:#181818;stroke-width:1;"/><polygon fill="#181818" points="460.99,806.8894,465.8782,798.3392,461.4948,801.9149,457.9191,797.5315,460.99,806.8894" style="stroke:#181818;stroke-width:1;"/><text fill="#000000" font-family="sans-serif" font-size="13" lengthAdjust="spacing" textLength="179.5625" x="466.15" y="773.6045">fiyat &#351;effafl&#305;&#287;&#305; + sponsorlu kural</text></g><!--link R to AB--><g id="link_R_AB"><path d="M457.25,845.1694 C455.01,866.3894 451.9591,895.4424 449.7091,916.7824 " fill="none" id="R-to-AB" style="stroke:#181818;stroke-width:1;"/><polygon fill="#181818" points="449.08,922.7494,454.0016,914.2184,449.6043,917.7769,446.0457,913.3796,449.08,922.7494" style="stroke:#181818;stroke-width:1;"/><text fill="#000000" font-family="sans-serif" font-size="13" lengthAdjust="spacing" textLength="163.6553" x="454.15" y="889.6045">s&#305;ralama + deneyim varyant&#305;</text></g><!--link AB to EX--><g id="link_AB_EX"><path d="M385.9,961.1894 C338.37,975.8594 271.2,997.9994 214.15,1022.1094 C195.34,1030.0594 180.2949,1037.5174 163.9149,1046.2474 " fill="none" id="AB-to-EX" style="stroke:#181818;stroke-width:1;"/><polygon fill="#181818" points="158.62,1049.0694,168.4437,1048.3663,163.0324,1046.7177,164.681,1041.3064,158.62,1049.0694" style="stroke:#181818;stroke-width:1;"/></g><!--link EX to API--><g id="link_EX_API"><path d="M125.91,1049.0394 C125.62,1024.8994 125.15,980.7794 125.15,943.1094 C125.15,334.1094 125.15,334.1094 125.15,334.1094 C125.15,299.3894 135.7748,266.1051 144.3648,243.9051 " fill="none" id="EX-to-API" style="stroke:#181818;stroke-width:1;"/><polygon fill="#181818" points="146.53,238.3094,139.5517,245.2595,144.7257,242.9725,147.0127,248.1464,146.53,238.3094" style="stroke:#181818;stroke-width:1;"/><text fill="#000000" font-family="sans-serif" font-size="13" lengthAdjust="spacing" textLength="228.0078" x="126.15" y="648.6045">sonu&#231; + neden + rozet + sponsor etiketi</text></g><!--SRC=[NLJ1Rjiw4BppAnQzrgdlVK019tM3uFMXZPqKkMwibR8WHHeabLO-zIEANWtquhFlkKdvaNv9bxJiwFMGoE3CSdTcLeeS3S5dZ0o_l_-0cSSQ9_21JVHag2Pu99Xrktwl3LgyPyCUbltUen6Y2fhj6gK6LgvUEqisBcCh5tfQHRILeH4bF63XlhAje4GJIE4gEW__DaPkxlUhVgzEby2h9Q5VFS3iyzKhm92UO_Iw8T_2hIt81-bJoAMPTdqxPbsIoqh8P_1o_ccCpWrNd0J5TioQVnoJ5cXrcdXkAxQK2GjLOCHx37IQyae6-PR1g_Tt8tZsY6nmwB4WBE0_Lv0vAFeo8jxu9aHOScN5cGpVB4VmXQjhyYj60ul6q85niVYVcc_h551aP-6yOLCSvTpznIBFTVfzsQ0llCntcEPSZOA0ixDtoN9u2pL5jl0QrXJbltQsgUMvaV3JQPdtH2LgAhc-bGgDaIhdUMgvfJXjSTFlQoYwfmsPM9CIKkAAKqB60bkef8TNwI014bFk6x0acC83RsG6m3oRIc0YpJ-cOXsvb2aArszz8uIwtpzlXs6RjcgiQVfjesPVNcegyjsEz17MIauJk10id-MH37fripm1wqRKLjtJ8rcUmFEMTVTBj4s0rn7D1DeqMuJGFNaAh2uMfygIMunIGMM9fUdt_LRSVGr10WdEcmPq8w-IEXJCpgKY75-k98mijLp38tff4KM_KBAKEpM_6wKK99Tk9nMMf4QUtcroO4CZ48Ur_9sI6hzrraM2UnUZgrNtqrjnn_aABMi8slct9wycGogJaujv3qGMrDrJGFcKi9weSsmfd0s1iwbPCaaE_krJ-hHa0wLT0jwevScMGT31y-bnW67V0bi6VDvAyqsw1FFtgTlX8DD8JFwDkl9w6gKLfDSyBv34AZCOwRKvxjNBcW1tErbrFJWZglm_wW5rI6nilMpnAX_hr3EGAS_MdahoP5Tqs6zhE6Tsd81i0SdTFm00]--></g></svg>