<svg xmlns="http://www.w3.org/2000/svg" xmlns:xlink="http://www.w3.org/1999/xlink" contentStyleType="text/css" height="913px" preserveAspectRatio="none" style="width:1703px;height:913px;background:#FFFFFF;" version="1.1" viewBox="0 0 1703 913" width="1703px" zoomAndPan="magnify"><title>Pati &#8212; Kimlik, Oturum ve Hesap Ya&#351;am D&#246;ng&#252;s&#252;</title><defs/><g><text fill="#000000" font-family="sans-serif" font-size="14" font-weight="bold" lengthAdjust="spacing" textLength="327.5234" x="681.0169" y="24.5332">Pati &#8212; Kimlik, Oturum ve Hesap Ya&#351;am D&#246;ng&#252;s&#252;</text><ellipse cx="1212.92" cy="54.6094" fill="#222222" rx="10" ry="10" style="stroke:#222222;stroke-width:1;"/><g id="Ziyaret&#231;i"><rect fill="#F1F1F1" height="50" rx="12.5" ry="12.5" style="stroke:#181818;stroke-width:0.5;" width="72.8965" x="1176.42" y="125.6094"/><line style="stroke:#181818;stroke-width:0.5;" x1="1176.42" x2="1249.3165" y1="153.2188" y2="153.2188"/><text fill="#000000" font-family="sans-serif" font-size="14" lengthAdjust="spacing" textLength="52.8965" x="1186.42" y="145.1426">Ziyaret&#231;i</text></g><g id="Kay&#305;tBa&#351;lad&#305;"><rect fill="#F1F1F1" height="50" rx="12.5" ry="12.5" style="stroke:#181818;stroke-width:0.5;" width="98.5996" x="1163.42" y="253.6094"/><line style="stroke:#181818;stroke-width:0.5;" x1="1163.42" x2="1262.0196" y1="281.2188" y2="281.2188"/><text fill="#000000" font-family="sans-serif" font-size="14" lengthAdjust="spacing" textLength="78.5996" x="1173.42" y="273.1426">Kay&#305;tBa&#351;lad&#305;</text></g><g id="Do&#287;rulamaBekliyor"><rect fill="#F1F1F1" height="50" rx="12.5" ry="12.5" style="stroke:#181818;stroke-width:0.5;" width="138.2686" x="1143.92" y="381.6094"/><line style="stroke:#181818;stroke-width:0.5;" x1="1143.92" x2="1282.1886" y1="409.2188" y2="409.2188"/><text fill="#000000" font-family="sans-serif" font-size="14" lengthAdjust="spacing" textLength="118.2686" x="1153.92" y="401.1426">Do&#287;rulamaBekliyor</text></g><g id="Aktif"><rect fill="#F1F1F1" height="50" rx="12.5" ry="12.5" style="stroke:#181818;stroke-width:0.5;" width="50" x="749.92" y="514.1094"/><line style="stroke:#181818;stroke-width:0.5;" x1="749.92" x2="799.92" y1="541.7188" y2="541.7188"/><text fill="#000000" font-family="sans-serif" font-size="14" lengthAdjust="spacing" textLength="27.2275" x="761.3062" y="533.6426">Aktif</text></g><g id="Kilitli"><rect fill="#F1F1F1" height="50" rx="12.5" ry="12.5" style="stroke:#181818;stroke-width:0.5;" width="50" x="1473.92" y="774.6094"/><line style="stroke:#181818;stroke-width:0.5;" x1="1473.92" x2="1523.92" y1="802.2188" y2="802.2188"/><text fill="#000000" font-family="sans-serif" font-size="14" lengthAdjust="spacing" textLength="28.7793" x="1484.5304" y="794.1426">Kilitli</text></g><g id="EkDo&#287;rulama"><rect fill="#F1F1F1" height="50" rx="12.5" ry="12.5" style="stroke:#181818;stroke-width:0.5;" width="104.8135" x="722.42" y="646.6094"/><line style="stroke:#181818;stroke-width:0.5;" x1="722.42" x2="827.2335" y1="674.2188" y2="674.2188"/><text fill="#000000" font-family="sans-serif" font-size="14" lengthAdjust="spacing" textLength="84.8135" x="732.42" y="666.1426">EkDo&#287;rulama</text></g><g id="RiskliOturum"><rect fill="#F1F1F1" height="50" rx="12.5" ry="12.5" style="stroke:#181818;stroke-width:0.5;" width="100.1172" x="1328.92" y="646.6094"/><line style="stroke:#181818;stroke-width:0.5;" x1="1328.92" x2="1429.0372" y1="674.2188" y2="674.2188"/><text fill="#000000" font-family="sans-serif" font-size="14" lengthAdjust="spacing" textLength="80.1172" x="1338.92" y="666.1426">RiskliOturum</text></g><g id="Ask&#305;da"><rect fill="#F1F1F1" height="50" rx="12.5" ry="12.5" style="stroke:#181818;stroke-width:0.5;" width="62.7998" x="209.42" y="646.6094"/><line style="stroke:#181818;stroke-width:0.5;" x1="209.42" x2="272.2198" y1="674.2188" y2="674.2188"/><text fill="#000000" font-family="sans-serif" font-size="14" lengthAdjust="spacing" textLength="42.7998" x="219.42" y="666.1426">Ask&#305;da</text></g><g id="Kapat&#305;ld&#305;"><rect fill="#F1F1F1" height="50" rx="12.5" ry="12.5" style="stroke:#181818;stroke-width:0.5;" width="75.2617" x="203.42" y="774.6094"/><line style="stroke:#181818;stroke-width:0.5;" x1="203.42" x2="278.6817" y1="802.2188" y2="802.2188"/><text fill="#000000" font-family="sans-serif" font-size="14" lengthAdjust="spacing" textLength="55.2617" x="213.42" y="794.1426">Kapat&#305;ld&#305;</text></g><g id="SilmeBekliyor"><rect fill="#F1F1F1" height="50" rx="12.5" ry="12.5" style="stroke:#181818;stroke-width:0.5;" width="104.7998" x="318.42" y="646.6094"/><line style="stroke:#181818;stroke-width:0.5;" x1="318.42" x2="423.2198" y1="674.2188" y2="674.2188"/><text fill="#000000" font-family="sans-serif" font-size="14" lengthAdjust="spacing" textLength="84.7998" x="328.42" y="666.1426">SilmeBekliyor</text></g><g id="Anonimle&#351;tirildi"><rect fill="#F1F1F1" height="50" rx="12.5" ry="12.5" style="stroke:#181818;stroke-width:0.5;" width="114.1445" x="313.92" y="774.6094"/><line style="stroke:#181818;stroke-width:0.5;" x1="313.92" x2="428.0645" y1="802.2188" y2="802.2188"/><text fill="#000000" font-family="sans-serif" font-size="14" lengthAdjust="spacing" textLength="94.1445" x="323.92" y="794.1426">Anonimle&#351;tirildi</text></g><ellipse cx="304.92" cy="896.6094" fill="none" rx="11" ry="11" style="stroke:#222222;stroke-width:1;"/><ellipse cx="304.92" cy="896.6094" fill="#222222" rx="6" ry="6" style="stroke:#222222;stroke-width:1;"/><g id="elem_GMN2"><path d="M835.42,509.6094 L835.42,535.1094 L800.21,539.1094 L835.42,543.1094 L835.42,568.6641 A0,0 0 0 0 835.42,568.6641 L1212.6505,568.6641 A0,0 0 0 0 1212.6505,568.6641 L1212.6505,519.6094 L1202.6505,509.6094 L835.42,509.6094 A0,0 0 0 0 835.42,509.6094 " fill="#FEFFDD" style="stroke:#181818;stroke-width:0.5;"/><path d="M1202.6505,509.6094 L1202.6505,519.6094 L1212.6505,519.6094 L1202.6505,509.6094 " fill="#FEFFDD" style="stroke:#181818;stroke-width:0.5;"/><text fill="#000000" font-family="sans-serif" font-size="13" lengthAdjust="spacing" textLength="356.2305" x="841.42" y="528.1045">Access token k&#305;sa &#246;m&#252;rl&#252;; refresh rotation ve reuse detection.</text><text fill="#000000" font-family="sans-serif" font-size="13" lengthAdjust="spacing" textLength="316.4497" x="841.42" y="544.4561">Cihaz/oturum listesi, uzaktan &#231;&#305;k&#305;&#351; ve g&#252;venlik bildirimi.</text><text fill="#000000" font-family="sans-serif" font-size="13" lengthAdjust="spacing" textLength="252.186" x="841.42" y="560.8076">Sa&#287;lay&#305;c&#305;/admin hesaplar&#305;nda zorunlu MFA.</text></g><!--link *start* to Ziyaret?i--><g id="link_*start*_Ziyaret&#231;i"><path d="M1212.92,64.6194 C1212.92,78.4994 1212.92,99.5794 1212.92,119.4494 " fill="none" id="*start*-to-Ziyaret&#231;i" style="stroke:#181818;stroke-width:1;"/><polygon fill="#181818" points="1212.92,125.4494,1216.92,116.4494,1212.92,120.4494,1208.92,116.4494,1212.92,125.4494" style="stroke:#181818;stroke-width:1;"/></g><!--link Ziyaret?i to Kay?tBa?lad?--><g id="link_Ziyaret&#231;i_Kay&#305;tBa&#351;lad&#305;"><path d="M1212.92,175.8994 C1212.92,198.2194 1212.92,225.0994 1212.92,247.3894 " fill="none" id="Ziyaret&#231;i-to-Kay&#305;tBa&#351;lad&#305;" style="stroke:#181818;stroke-width:1;"/><polygon fill="#181818" points="1212.92,253.3894,1216.92,244.3894,1212.92,248.3894,1208.92,244.3894,1212.92,253.3894" style="stroke:#181818;stroke-width:1;"/><text fill="#000000" font-family="sans-serif" font-size="13" lengthAdjust="spacing" textLength="153.9116" x="1213.92" y="220.1045">telefon/e-posta/sosyal giri&#351;</text></g><!--link Kay?tBa?lad? to Do?rulamaBekliyor--><g id="link_Kay&#305;tBa&#351;lad&#305;_Do&#287;rulamaBekliyor"><path d="M1212.92,303.8994 C1212.92,326.2194 1212.92,353.0994 1212.92,375.3894 " fill="none" id="Kay&#305;tBa&#351;lad&#305;-to-Do&#287;rulamaBekliyor" style="stroke:#181818;stroke-width:1;"/><polygon fill="#181818" points="1212.92,381.3894,1216.92,372.3894,1212.92,376.3894,1208.92,372.3894,1212.92,381.3894" style="stroke:#181818;stroke-width:1;"/><text fill="#000000" font-family="sans-serif" font-size="13" lengthAdjust="spacing" textLength="119.2026" x="1213.92" y="348.1045">OTP veya magic link</text></g><!--link Do?rulamaBekliyor to Aktif--><g id="link_Do&#287;rulamaBekliyor_Aktif"><path d="M1143.87,418.2594 C1063.16,432.3094 926.77,461.1294 817.92,509.6094 C811.86,512.3094 810.7717,512.592 805.0917,516.232 " fill="none" id="Do&#287;rulamaBekliyor-to-Aktif" style="stroke:#181818;stroke-width:1;"/><polygon fill="#181818" points="800.04,519.4694,809.7758,517.9811,804.2497,516.7716,805.4593,511.2456,800.04,519.4694" style="stroke:#181818;stroke-width:1;"/><text fill="#000000" font-family="sans-serif" font-size="13" lengthAdjust="spacing" textLength="107.6689" x="944.92" y="476.1045">do&#287;rulama ba&#351;ar&#305;l&#305;</text></g><!--link Do?rulamaBekliyor to Kilitli--><g id="link_Do&#287;rulamaBekliyor_Kilitli"><path d="M1282.25,426.4094 C1375.63,455.8894 1538.15,522.8494 1607.92,646.6094 C1637.98,699.9294 1569.7022,753.8718 1528.9522,780.3318 " fill="none" id="Do&#287;rulamaBekliyor-to-Kilitli" style="stroke:#181818;stroke-width:1;"/><polygon fill="#181818" points="1523.92,783.5994,1533.6467,782.0529,1528.1135,780.8764,1529.29,775.3433,1523.92,783.5994" style="stroke:#181818;stroke-width:1;"/><text fill="#000000" font-family="sans-serif" font-size="13" lengthAdjust="spacing" textLength="107.6372" x="1587.92" y="613.1045">deneme limiti / risk</text></g><!--link Aktif to EkDo?rulama--><g id="link_Aktif_EkDo&#287;rulama"><path d="M797.32,564.1194 C805.11,574.0294 812.9,586.1094 816.92,598.6094 C822.41,615.6894 816.6207,628.5519 805.1807,641.9819 " fill="none" id="Aktif-to-EkDo&#287;rulama" style="stroke:#181818;stroke-width:1;"/><polygon fill="#181818" points="801.29,646.5494,810.1711,642.2919,804.5323,642.7431,804.0811,637.1043,801.29,646.5494" style="stroke:#181818;stroke-width:1;"/><text fill="#000000" font-family="sans-serif" font-size="13" lengthAdjust="spacing" textLength="216.7534" x="818.92" y="613.1045">&#246;deme, sa&#287;l&#305;k payla&#351;&#305;m&#305;, admin i&#351;lem</text></g><!--link EkDo?rulama to Aktif--><g id="link_EkDo&#287;rulama_Aktif"><path d="M722.3,649.9694 C708.31,641.7794 694.88,630.8394 686.92,616.6094 C669.47,585.4294 712.3112,563.0364 744.0812,550.7964 " fill="none" id="EkDo&#287;rulama-to-Aktif" style="stroke:#181818;stroke-width:1;"/><polygon fill="#181818" points="749.68,548.6394,739.8437,548.1424,745.0143,550.4369,742.7198,555.6075,749.68,548.6394" style="stroke:#181818;stroke-width:1;"/><text fill="#000000" font-family="sans-serif" font-size="13" lengthAdjust="spacing" textLength="120.6563" x="687.92" y="613.1045">step-up MFA ba&#351;ar&#305;l&#305;</text></g><!--link Aktif to RiskliOturum--><g id="link_Aktif_RiskliOturum"><path d="M800.27,559.6094 C805.84,563.0994 811.88,566.3494 817.92,568.6094 C912.8,604.1794 944.56,578.7594 1043.92,598.6094 C1074.15,604.6494 1080.9,609.5594 1110.92,616.6094 C1186.46,634.3494 1268.9311,650.3624 1322.9211,660.4024 " fill="none" id="Aktif-to-RiskliOturum" style="stroke:#181818;stroke-width:1;"/><polygon fill="#181818" points="1328.82,661.4994,1320.703,655.9214,1323.9043,660.5852,1319.2404,663.7865,1328.82,661.4994" style="stroke:#181818;stroke-width:1;"/><text fill="#000000" font-family="sans-serif" font-size="13" lengthAdjust="spacing" textLength="237.7197" x="1111.92" y="613.1045">yeni cihaz / anormal konum / token tekrar</text></g><!--link RiskliOturum to Aktif--><g id="link_RiskliOturum_Aktif"><path d="M1377.28,646.5294 C1374.8,630.2494 1368.71,609.7694 1353.92,598.6094 C1306.3,562.6894 874.53,587.4094 817.92,568.6094 C811.8,566.5794 810.8193,566.5913 805.2393,563.1313 " fill="none" id="RiskliOturum-to-Aktif" style="stroke:#181818;stroke-width:1;"/><polygon fill="#181818" points="800.14,559.9694,805.6809,568.1117,804.3894,562.6043,809.8968,561.3127,800.14,559.9694" style="stroke:#181818;stroke-width:1;"/><text fill="#000000" font-family="sans-serif" font-size="13" lengthAdjust="spacing" textLength="81.6499" x="1367.92" y="613.1045">kullan&#305;c&#305; teyidi</text></g><!--link RiskliOturum to Kilitli--><g id="link_RiskliOturum_Kilitli"><path d="M1375.19,696.6694 C1374.15,711.7094 1375.35,730.7894 1384.92,744.6094 C1405.49,774.3094 1441.0487,786.8317 1467.8887,792.9217 " fill="none" id="RiskliOturum-to-Kilitli" style="stroke:#181818;stroke-width:1;"/><polygon fill="#181818" points="1473.74,794.2494,1465.8482,788.357,1468.8639,793.143,1464.078,796.1587,1473.74,794.2494" style="stroke:#181818;stroke-width:1;"/><text fill="#000000" font-family="sans-serif" font-size="13" lengthAdjust="spacing" textLength="86.728" x="1385.92" y="741.1045">do&#287;rulanamad&#305;</text></g><!--link Aktif to Ask?da--><g id="link_Aktif_Ask&#305;da"><path d="M749.89,540.1794 C628.07,540.7594 101.14,546.3194 52.92,598.6094 C6,649.4794 138.1331,664.3333 203.1231,668.6333 " fill="none" id="Aktif-to-Ask&#305;da" style="stroke:#181818;stroke-width:1;"/><polygon fill="#181818" points="209.11,669.0294,200.3937,664.4439,204.1209,668.6993,199.8656,672.4265,209.11,669.0294" style="stroke:#181818;stroke-width:1;"/><text fill="#000000" font-family="sans-serif" font-size="13" lengthAdjust="spacing" textLength="156.7808" x="53.92" y="613.1045">politika ihlali / risk inceleme</text></g><!--link Ask?da to Aktif--><g id="link_Ask&#305;da_Aktif"><path d="M246.53,646.5794 C251.64,630.3294 260.9,609.8494 276.92,598.6094 C354.4,544.2194 653.7,540.0214 743.77,539.9914 " fill="none" id="Ask&#305;da-to-Aktif" style="stroke:#181818;stroke-width:1;"/><polygon fill="#181818" points="749.77,539.9894,740.77,535.9894,744.77,539.9894,740.77,543.9894,749.77,539.9894" style="stroke:#181818;stroke-width:1;"/><text fill="#000000" font-family="sans-serif" font-size="13" lengthAdjust="spacing" textLength="62.1372" x="277.92" y="613.1045">itiraz kabul</text></g><!--link Ask?da to Kapat?ld?--><g id="link_Ask&#305;da_Kapat&#305;ld&#305;"><path d="M240.92,696.8994 C240.92,719.2194 240.92,746.0994 240.92,768.3894 " fill="none" id="Ask&#305;da-to-Kapat&#305;ld&#305;" style="stroke:#181818;stroke-width:1;"/><polygon fill="#181818" points="240.92,774.3894,244.92,765.3894,240.92,769.3894,236.92,765.3894,240.92,774.3894" style="stroke:#181818;stroke-width:1;"/><text fill="#000000" font-family="sans-serif" font-size="13" lengthAdjust="spacing" textLength="80.9072" x="241.92" y="741.1045">kal&#305;c&#305; yapt&#305;r&#305;m</text></g><!--link Aktif to SilmeBekliyor--><g id="link_Aktif_SilmeBekliyor"><path d="M749.76,539.5294 C667.2,538.2294 406.82,538.9794 354.92,598.6094 C343.57,611.6494 346.0531,625.5457 353.3831,640.8857 " fill="none" id="Aktif-to-SilmeBekliyor" style="stroke:#181818;stroke-width:1;"/><polygon fill="#181818" points="355.97,646.2994,355.6988,636.4543,353.8143,641.788,348.4806,639.9034,355.97,646.2994" style="stroke:#181818;stroke-width:1;"/><text fill="#000000" font-family="sans-serif" font-size="13" lengthAdjust="spacing" textLength="116.3271" x="355.92" y="613.1045">kullan&#305;c&#305; silme talebi</text></g><!--link SilmeBekliyor to Aktif--><g id="link_SilmeBekliyor_Aktif"><path d="M420.54,646.4694 C453.09,631.2994 496.88,612.1094 536.92,598.6094 C612.92,572.9894 700.1513,554.5297 743.9713,545.9697 " fill="none" id="SilmeBekliyor-to-Aktif" style="stroke:#181818;stroke-width:1;"/><polygon fill="#181818" points="749.86,544.8194,740.2601,542.6191,744.9528,545.778,741.7938,550.4707,749.86,544.8194" style="stroke:#181818;stroke-width:1;"/><text fill="#000000" font-family="sans-serif" font-size="13" lengthAdjust="spacing" textLength="136.5762" x="537.92" y="613.1045">bekleme s&#252;resinde iptal</text></g><!--link SilmeBekliyor to Anonimle?tirildi--><g id="link_SilmeBekliyor_Anonimle&#351;tirildi"><path d="M370.92,696.8994 C370.92,719.2194 370.92,746.0994 370.92,768.3894 " fill="none" id="SilmeBekliyor-to-Anonimle&#351;tirildi" style="stroke:#181818;stroke-width:1;"/><polygon fill="#181818" points="370.92,774.3894,374.92,765.3894,370.92,769.3894,366.92,765.3894,370.92,774.3894" style="stroke:#181818;stroke-width:1;"/><text fill="#000000" font-family="sans-serif" font-size="13" lengthAdjust="spacing" textLength="150.2744" x="371.92" y="741.1045">hukuki saklama ayr&#305;&#351;t&#305;r&#305;ld&#305;</text></g><!--link Kilitli to Aktif--><g id="link_Kilitli_Aktif"><path d="M1502.35,774.3094 C1506.89,731.3494 1509.09,642.3894 1457.92,598.6094 C1403.82,552.3294 885.58,590.7394 817.92,568.6094 C811.79,566.6094 810.8093,566.6313 805.2293,563.1713 " fill="none" id="Kilitli-to-Aktif" style="stroke:#181818;stroke-width:1;"/><polygon fill="#181818" points="800.13,560.0094,805.6709,568.1517,804.3794,562.6443,809.8868,561.3527,800.13,560.0094" style="stroke:#181818;stroke-width:1;"/><text fill="#000000" font-family="sans-serif" font-size="13" lengthAdjust="spacing" textLength="96.0972" x="1502.92" y="677.1045">g&#252;venli kurtarma</text></g><!--link Kapat?ld? to *end*--><g id="link_Kapat&#305;ld&#305;_*end*"><path d="M257.4,825.0694 C271.03,845.3094 286.2571,867.9136 295.6371,881.8336 " fill="none" id="Kapat&#305;ld&#305;-to-*end*" style="stroke:#181818;stroke-width:1;"/><polygon fill="#181818" points="298.99,886.8094,297.2778,877.1105,296.1959,882.6629,290.6435,881.581,298.99,886.8094" style="stroke:#181818;stroke-width:1;"/></g><!--link Anonimle?tirildi to *end*--><g id="link_Anonimle&#351;tirildi_*end*"><path d="M353.92,825.0694 C339.71,845.5294 323.7018,868.5607 314.1418,882.3307 " fill="none" id="Anonimle&#351;tirildi-to-*end*" style="stroke:#181818;stroke-width:1;"/><polygon fill="#181818" points="310.72,887.2594,319.1384,882.1476,313.5715,883.1522,312.5669,877.5852,310.72,887.2594" style="stroke:#181818;stroke-width:1;"/></g><!--SRC=[TLIxRjj04EplAxOEzEWT880S9mWW13RYD4cGOaMknCMzYBkZ0whAHwHNwPgDAtUaVoHVaZt9YgdOwOZRrypiB1CdGt25YU7tpr-mP6jOJ-0oDQ6nS4FmWIBMy0KVTcZXehzpc_u-zlSgQdOr1dcC5PR-1xiDhD54KjzUVOVfz0ryvHO3fVwMrTFdFhB4TkZIkVGqM0uTd44YGsllvZIjVKmuZpwsQ633WHzswj_ytEF23xlG6BHuJjfmwuEqkVny9PXR18iRBi2mq-g5n5o_q8dNKbB-3SCgamn3PuRkVrLBDY8OvpfoP4b6M1RjvX0uQdLecXFVwQSEajtVbP8zWOZ3JjfhgB4rCcxexD1D04lB3eIg8QjEIiTGOw9wsjJmyVtY1ElJr4y2ml3ZyiwW9STGS8LR0OZE1okQQkyaE8VaDJaHNWSCwgHmF5Ctng0Rka9aJzHooSzpHw8y0dS2lJn1jeXwwCeiHUqbcpK2LmRDKJfWLuW7BAbZvXY550GXeN7Lc9E49TQOH8M3YpIQ0z8MQtaLUUm8mZKRIoEpZAd578E4XbQiJXF7E5RocBSk1n0eiYi9k9QgbqgSTt9CzB0Jx6pAB4_Lw4Qpc43lTukj89Ju7ccce8vAZcVAlTsGaqVTX8IoGZKcdJFbuDJpSSU8yub4uasLmAyFNTMYA2Z6Hmk8cX75eLP8cVx-DGHQ2xiAWa_oN_0k_mO2DP74z8cA_3HJRxEjvlxW0iFYpSWJQBQe4pheRyNacLokFJBGiCh8WfpCJ5tdIyXtBVBF3_wlyg_6P5SxMU_MXyQP9hjzfiYLa8dy0G00]--></g></svg>