<svg xmlns="http://www.w3.org/2000/svg" xmlns:xlink="http://www.w3.org/1999/xlink" contentStyleType="text/css" height="1485px" preserveAspectRatio="none" style="width:1586px;height:1485px;background:#FFFFFF;" version="1.1" viewBox="0 0 1586 1485" width="1586px" zoomAndPan="magnify"><title>Pati &#8212; KVKK Veri Haklar&#305;, D&#305;&#351;a Aktar&#305;m ve Silme Orkestrasyonu</title><defs/><g><text fill="#000000" font-family="sans-serif" font-size="14" font-weight="bold" lengthAdjust="spacing" textLength="425.6191" x="579.0874" y="34.5332">Pati &#8212; KVKK Veri Haklar&#305;, D&#305;&#351;a Aktar&#305;m ve Silme Orkestrasyonu</text><rect fill="none" height="22.6406" style="stroke:none;stroke-width:1;" width="1553.7939" x="15" y="51.0645"/><ellipse cx="150.0361" cy="88.7051" fill="#222222" rx="10" ry="10" style="stroke:#222222;stroke-width:1;"/><rect fill="#F1F1F1" height="35.0938" rx="12.5" ry="12.5" style="stroke:#181818;stroke-width:0.5;" width="258.0723" x="21" y="118.7051"/><text fill="#000000" font-family="sans-serif" font-size="12" lengthAdjust="spacing" textLength="238.0723" x="31" y="141.1621">Eri&#351;im / d&#252;zeltme / d&#305;&#351;a aktar&#305;m / silme talebi</text><rect fill="#F1F1F1" height="35.0938" rx="12.5" ry="12.5" style="stroke:#181818;stroke-width:0.5;" width="194.7617" x="52.6553" y="1369.4121"/><text fill="#000000" font-family="sans-serif" font-size="12" lengthAdjust="spacing" textLength="174.7617" x="62.6553" y="1391.8691">Talep sonucu ve itiraz kanal&#305;n&#305; al</text><path d="M181.0361,1414.5059 L181.0361,1440.0332 L161.0361,1444.0332 L181.0361,1448.0332 L181.0361,1473.5605 A0,0 0 0 0 181.0361,1473.5605 L594.3911,1473.5605 A0,0 0 0 0 594.3911,1473.5605 L594.3911,1424.5059 L584.3911,1414.5059 L181.0361,1414.5059 A0,0 0 0 0 181.0361,1414.5059 " fill="#FEFFDD" style="stroke:#181818;stroke-width:0.5;"/><path d="M584.3911,1414.5059 L584.3911,1424.5059 L594.3911,1424.5059 L584.3911,1414.5059 " fill="#FEFFDD" style="stroke:#181818;stroke-width:0.5;"/><text fill="#000000" font-family="sans-serif" font-size="13" lengthAdjust="spacing" textLength="392.355" x="187.0361" y="1433.001">Backup verisi aktif sisteme d&#246;nmez; ya&#351;am d&#246;ng&#252;s&#252; sonunda silinir.</text><text fill="#000000" font-family="sans-serif" font-size="13" lengthAdjust="spacing" textLength="306.3569" x="187.0361" y="1449.3525">Silme kan&#305;t&#305; ki&#351;isel verinin kendisini yeniden &#252;retmez.</text><text fill="#000000" font-family="sans-serif" font-size="13" lengthAdjust="spacing" textLength="359.0869" x="187.0361" y="1465.7041">Retention matrisi veri s&#305;n&#305;f&#305;, ama&#231;, dayanak ve s&#252;reyi tan&#305;mlar.</text><ellipse cx="150.0361" cy="1444.0332" fill="none" rx="11" ry="11" style="stroke:#222222;stroke-width:1;"/><ellipse cx="150.0361" cy="1444.0332" fill="#222222" rx="6" ry="6" style="stroke:#222222;stroke-width:1;"/><line style="stroke:#000000;stroke-width:1.5;" x1="15" x2="15" y1="51.0645" y2="1473.5605"/><rect fill="#F1F1F1" height="35.0938" rx="12.5" ry="12.5" style="stroke:#181818;stroke-width:0.5;" width="246.793" x="948.4458" y="173.7988"/><text fill="#000000" font-family="sans-serif" font-size="12" lengthAdjust="spacing" textLength="226.793" x="958.4458" y="196.2559">Kimlik ve hesap sahipli&#287;ini step-up do&#287;rula</text><rect fill="#F1F1F1" height="35.0938" rx="12.5" ry="12.5" style="stroke:#181818;stroke-width:0.5;" width="261.4531" x="941.1157" y="228.8926"/><text fill="#000000" font-family="sans-serif" font-size="12" lengthAdjust="spacing" textLength="241.4531" x="951.1157" y="251.3496">Talep t&#252;r&#252;, zaman ve yasal SLA kayd&#305; olu&#351;tur</text><rect fill="#F1F1F1" height="35.0938" rx="12.5" ry="12.5" style="stroke:#181818;stroke-width:0.5;" width="256.1211" x="943.7817" y="332.9043"/><text fill="#000000" font-family="sans-serif" font-size="12" lengthAdjust="spacing" textLength="236.1211" x="953.7817" y="355.3613">Veri envanterinden kullan&#305;c&#305; kapsam&#305;n&#305; &#231;&#305;kar</text><rect fill="#F1F1F1" height="35.0938" rx="12.5" ry="12.5" style="stroke:#181818;stroke-width:0.5;" width="245.416" x="949.1343" y="387.998"/><text fill="#000000" font-family="sans-serif" font-size="12" lengthAdjust="spacing" textLength="225.416" x="959.1343" y="410.4551">Hassas &#252;&#231;&#252;nc&#252; taraf verisini ay&#305;r/maskeler</text><rect fill="#F1F1F1" height="35.0938" rx="12.5" ry="12.5" style="stroke:#181818;stroke-width:0.5;" width="263.123" x="940.2808" y="458.0918"/><text fill="#000000" font-family="sans-serif" font-size="12" lengthAdjust="spacing" textLength="243.123" x="950.2808" y="480.5488">Makine okunur JSON/CSV + belgeleri paketle</text><rect fill="#F1F1F1" height="35.0938" rx="12.5" ry="12.5" style="stroke:#181818;stroke-width:0.5;" width="264.7461" x="939.4692" y="513.1855"/><text fill="#000000" font-family="sans-serif" font-size="12" lengthAdjust="spacing" textLength="244.7461" x="949.4692" y="535.6426">&#350;ifreli, k&#305;sa &#246;m&#252;rl&#252; tek kullan&#305;ml&#305;k indirme &#252;ret</text><polygon fill="#F1F1F1" points="1037.6096,283.9863,1106.075,283.9863,1118.075,295.9863,1106.075,307.9863,1037.6096,307.9863,1025.6096,295.9863,1037.6096,283.9863" style="stroke:#181818;stroke-width:0.5;"/><text fill="#000000" font-family="sans-serif" font-size="11" lengthAdjust="spacing" textLength="22.0107" x="1075.8423" y="319.4053">Evet</text><text fill="#000000" font-family="sans-serif" font-size="11" lengthAdjust="spacing" textLength="68.4653" x="1037.6096" y="300.4873">D&#305;&#351;a aktar&#305;m?</text><polygon fill="#F1F1F1" points="1071.8423,568.2793,1083.8423,580.2793,1071.8423,592.2793,1059.8423,580.2793,1071.8423,568.2793" style="stroke:#181818;stroke-width:0.5;"/><rect fill="#F1F1F1" height="35.0938" rx="12.5" ry="12.5" style="stroke:#181818;stroke-width:0.5;" width="156.0605" x="993.812" y="661.1973"/><text fill="#000000" font-family="sans-serif" font-size="12" lengthAdjust="spacing" textLength="136.0605" x="1003.812" y="683.6543">De&#287;i&#351;tirilebilir alan&#305; d&#252;zelt</text><rect fill="#F1F1F1" height="35.0938" rx="12.5" ry="12.5" style="stroke:#181818;stroke-width:0.5;" width="354.8223" x="894.4312" y="731.291"/><text fill="#000000" font-family="sans-serif" font-size="12" lengthAdjust="spacing" textLength="334.8223" x="904.4312" y="753.748">Finans/audit/klinik kayd&#305;nda ters kay&#305;t veya ek a&#231;&#305;klama olu&#351;tur</text><polygon fill="#F1F1F1" points="1045.5535,612.2793,1098.1311,612.2793,1110.1311,624.2793,1098.1311,636.2793,1045.5535,636.2793,1033.5535,624.2793,1045.5535,612.2793" style="stroke:#181818;stroke-width:0.5;"/><text fill="#000000" font-family="sans-serif" font-size="11" lengthAdjust="spacing" textLength="22.0107" x="1075.8423" y="647.6982">Evet</text><text fill="#000000" font-family="sans-serif" font-size="11" lengthAdjust="spacing" textLength="52.5776" x="1045.5535" y="628.7803">D&#252;zeltme?</text><polygon fill="#F1F1F1" points="1071.8423,786.3848,1083.8423,798.3848,1071.8423,810.3848,1059.8423,798.3848,1071.8423,786.3848" style="stroke:#181818;stroke-width:0.5;"/><rect fill="#F1F1F1" height="35.0938" rx="12.5" ry="12.5" style="stroke:#181818;stroke-width:0.5;" width="372.8047" x="885.4399" y="879.3027"/><text fill="#000000" font-family="sans-serif" font-size="12" lengthAdjust="spacing" textLength="352.8047" x="895.4399" y="901.7598">Aktif rezervasyon, uyu&#351;mazl&#305;k, bor&#231; ve hukuki saklamay&#305; kontrol et</text><rect fill="#F1F1F1" height="35.0938" rx="12.5" ry="12.5" style="stroke:#181818;stroke-width:0.5;" width="214.7656" x="964.4595" y="934.3965"/><text fill="#000000" font-family="sans-serif" font-size="12" lengthAdjust="spacing" textLength="194.7656" x="974.4595" y="956.8535">Bekleme s&#252;resi ve iptal olana&#287;&#305; bildir</text><rect fill="#F1F1F1" height="35.0938" rx="12.5" ry="12.5" style="stroke:#181818;stroke-width:0.5;" width="271.4434" x="936.1206" y="989.4902"/><text fill="#000000" font-family="sans-serif" font-size="12" lengthAdjust="spacing" textLength="251.4434" x="946.1206" y="1011.9473">Oturumlar&#305; ve pazarlama izinlerini hemen kapat</text><rect fill="#F1F1F1" height="35.0938" rx="12.5" ry="12.5" style="stroke:#181818;stroke-width:0.5;" width="248.8027" x="947.4409" y="1044.584"/><text fill="#000000" font-family="sans-serif" font-size="12" lengthAdjust="spacing" textLength="228.8027" x="957.4409" y="1067.041">Servislere deletion_requested olay&#305; yay&#305;nla</text><rect fill="#555555" height="6" rx="2.5" ry="2.5" style="stroke:#555555;stroke-width:1;" width="932.9023" x="605.3911" y="1108.1309"/><rect fill="#F1F1F1" height="35.0938" rx="12.5" ry="12.5" style="stroke:#181818;stroke-width:0.5;" width="189.3828" x="617.3911" y="1134.1309"/><text fill="#000000" font-family="sans-serif" font-size="12" lengthAdjust="spacing" textLength="169.3828" x="627.3911" y="1156.5879">Profil ve ileti&#351;im PII anonimle&#351;tir</text><rect fill="#F1F1F1" height="35.0938" rx="12.5" ry="12.5" style="stroke:#181818;stroke-width:0.5;" width="241.4023" x="816.7739" y="1134.1309"/><text fill="#000000" font-family="sans-serif" font-size="12" lengthAdjust="spacing" textLength="221.4023" x="826.7739" y="1156.5879">Arama, cache ve analitik kimlikleri temizle</text><rect fill="#F1F1F1" height="35.0938" rx="12.5" ry="12.5" style="stroke:#181818;stroke-width:0.5;" width="205.4082" x="1086.1763" y="1134.1309"/><text fill="#000000" font-family="sans-serif" font-size="12" lengthAdjust="spacing" textLength="185.4082" x="1096.1763" y="1156.5879">Dosya ve AI artefact silme kuyru&#287;u</text><rect fill="#F1F1F1" height="35.0938" rx="12.5" ry="12.5" style="stroke:#181818;stroke-width:0.5;" width="224.709" x="1301.5845" y="1134.1309"/><text fill="#000000" font-family="sans-serif" font-size="12" lengthAdjust="spacing" textLength="204.709" x="1311.5845" y="1156.5879">Harici i&#351;lemcilere silme/k&#305;s&#305;tlama iste&#287;i</text><rect fill="#555555" height="6" rx="2.5" ry="2.5" style="stroke:#555555;stroke-width:1;" width="932.9023" x="605.3911" y="1189.2246"/><rect fill="#F1F1F1" height="35.0938" rx="12.5" ry="12.5" style="stroke:#181818;stroke-width:0.5;" width="317.4336" x="913.1255" y="1215.2246"/><text fill="#000000" font-family="sans-serif" font-size="12" lengthAdjust="spacing" textLength="297.4336" x="923.1255" y="1237.6816">Finans/audit kay&#305;tlar&#305;n&#305; ama&#231;la s&#305;n&#305;rl&#305; ve eri&#351;imi k&#305;s&#305;tl&#305; tut</text><rect fill="#F1F1F1" height="35.0938" rx="12.5" ry="12.5" style="stroke:#181818;stroke-width:0.5;" width="233.4219" x="955.1313" y="1270.3184"/><text fill="#000000" font-family="sans-serif" font-size="12" lengthAdjust="spacing" textLength="213.4219" x="965.1313" y="1292.7754">Silme kan&#305;t&#305; ve tamamlanma raporu &#252;ret</text><polygon fill="#F1F1F1" points="1055.0308,830.3848,1088.6538,830.3848,1100.6538,842.3848,1088.6538,854.3848,1055.0308,854.3848,1043.0308,842.3848,1055.0308,830.3848" style="stroke:#181818;stroke-width:0.5;"/><text fill="#000000" font-family="sans-serif" font-size="11" lengthAdjust="spacing" textLength="22.0107" x="1075.8423" y="865.8037">Evet</text><text fill="#000000" font-family="sans-serif" font-size="11" lengthAdjust="spacing" textLength="33.623" x="1055.0308" y="846.8857">Silme?</text><polygon fill="#F1F1F1" points="1071.8423,1325.4121,1083.8423,1337.4121,1071.8423,1349.4121,1059.8423,1337.4121,1071.8423,1325.4121" style="stroke:#181818;stroke-width:0.5;"/><line style="stroke:#000000;stroke-width:1.5;" x1="599.3911" x2="599.3911" y1="51.0645" y2="1473.5605"/><line style="stroke:#000000;stroke-width:1.5;" x1="1567.2935" x2="1567.2935" y1="51.0645" y2="1473.5605"/><line style="stroke:#181818;stroke-width:1;" x1="150.0361" x2="150.0361" y1="98.7051" y2="118.7051"/><polygon fill="#181818" points="146.0361,108.7051,150.0361,118.7051,154.0361,108.7051,150.0361,112.7051" style="stroke:#181818;stroke-width:1;"/><line style="stroke:#181818;stroke-width:1;" x1="150.0361" x2="150.0361" y1="1404.5059" y2="1433.0332"/><polygon fill="#181818" points="146.0361,1423.0332,150.0361,1433.0332,154.0361,1423.0332,150.0361,1427.0332" style="stroke:#181818;stroke-width:1;"/><line style="stroke:#181818;stroke-width:1;" x1="1071.8423" x2="1071.8423" y1="208.8926" y2="228.8926"/><polygon fill="#181818" points="1067.8423,218.8926,1071.8423,228.8926,1075.8423,218.8926,1071.8423,222.8926" style="stroke:#181818;stroke-width:1;"/><line style="stroke:#181818;stroke-width:1;" x1="1071.8423" x2="1071.8423" y1="367.998" y2="387.998"/><polygon fill="#181818" points="1067.8423,377.998,1071.8423,387.998,1075.8423,377.998,1071.8423,381.998" style="stroke:#181818;stroke-width:1;"/><line style="stroke:#181818;stroke-width:1;" x1="1071.8423" x2="1071.8423" y1="423.0918" y2="458.0918"/><polygon fill="#181818" points="1067.8423,448.0918,1071.8423,458.0918,1075.8423,448.0918,1071.8423,452.0918" style="stroke:#181818;stroke-width:1;"/><line style="stroke:#181818;stroke-width:1;" x1="1071.8423" x2="1071.8423" y1="493.1855" y2="513.1855"/><polygon fill="#181818" points="1067.8423,503.1855,1071.8423,513.1855,1075.8423,503.1855,1071.8423,507.1855" style="stroke:#181818;stroke-width:1;"/><line style="stroke:#181818;stroke-width:1;" x1="1071.8423" x2="1071.8423" y1="307.9863" y2="332.9043"/><polygon fill="#181818" points="1067.8423,322.9043,1071.8423,332.9043,1075.8423,322.9043,1071.8423,326.9043" style="stroke:#181818;stroke-width:1;"/><line style="stroke:#181818;stroke-width:1;" x1="1118.075" x2="1214.2153" y1="295.9863" y2="295.9863"/><polygon fill="#181818" points="1210.2153,430.5918,1214.2153,440.5918,1218.2153,430.5918,1214.2153,434.5918" style="stroke:#181818;stroke-width:1;"/><line style="stroke:#181818;stroke-width:1;" x1="1214.2153" x2="1214.2153" y1="295.9863" y2="580.2793"/><line style="stroke:#181818;stroke-width:1;" x1="1214.2153" x2="1083.8423" y1="580.2793" y2="580.2793"/><polygon fill="#181818" points="1093.8423,576.2793,1083.8423,580.2793,1093.8423,584.2793,1089.8423,580.2793" style="stroke:#181818;stroke-width:1;"/><line style="stroke:#181818;stroke-width:1;" x1="1071.8423" x2="1071.8423" y1="548.2793" y2="568.2793"/><polygon fill="#181818" points="1067.8423,558.2793,1071.8423,568.2793,1075.8423,558.2793,1071.8423,562.2793" style="stroke:#181818;stroke-width:1;"/><line style="stroke:#181818;stroke-width:1;" x1="1071.8423" x2="1071.8423" y1="263.9863" y2="283.9863"/><polygon fill="#181818" points="1067.8423,273.9863,1071.8423,283.9863,1075.8423,273.9863,1071.8423,277.9863" style="stroke:#181818;stroke-width:1;"/><line style="stroke:#181818;stroke-width:1;" x1="1071.8423" x2="1071.8423" y1="696.291" y2="731.291"/><polygon fill="#181818" points="1067.8423,721.291,1071.8423,731.291,1075.8423,721.291,1071.8423,725.291" style="stroke:#181818;stroke-width:1;"/><line style="stroke:#181818;stroke-width:1;" x1="1071.8423" x2="1071.8423" y1="636.2793" y2="661.1973"/><polygon fill="#181818" points="1067.8423,651.1973,1071.8423,661.1973,1075.8423,651.1973,1071.8423,655.1973" style="stroke:#181818;stroke-width:1;"/><line style="stroke:#181818;stroke-width:1;" x1="1110.1311" x2="1259.2534" y1="624.2793" y2="624.2793"/><polygon fill="#181818" points="1255.2534,703.791,1259.2534,713.791,1263.2534,703.791,1259.2534,707.791" style="stroke:#181818;stroke-width:1;"/><line style="stroke:#181818;stroke-width:1;" x1="1259.2534" x2="1259.2534" y1="624.2793" y2="798.3848"/><line style="stroke:#181818;stroke-width:1;" x1="1259.2534" x2="1083.8423" y1="798.3848" y2="798.3848"/><polygon fill="#181818" points="1093.8423,794.3848,1083.8423,798.3848,1093.8423,802.3848,1089.8423,798.3848" style="stroke:#181818;stroke-width:1;"/><line style="stroke:#181818;stroke-width:1;" x1="1071.8423" x2="1071.8423" y1="766.3848" y2="786.3848"/><polygon fill="#181818" points="1067.8423,776.3848,1071.8423,786.3848,1075.8423,776.3848,1071.8423,780.3848" style="stroke:#181818;stroke-width:1;"/><line style="stroke:#181818;stroke-width:1;" x1="1071.8423" x2="1071.8423" y1="592.2793" y2="612.2793"/><polygon fill="#181818" points="1067.8423,602.2793,1071.8423,612.2793,1075.8423,602.2793,1071.8423,606.2793" style="stroke:#181818;stroke-width:1;"/><line style="stroke:#181818;stroke-width:1;" x1="1071.8423" x2="1071.8423" y1="914.3965" y2="934.3965"/><polygon fill="#181818" points="1067.8423,924.3965,1071.8423,934.3965,1075.8423,924.3965,1071.8423,928.3965" style="stroke:#181818;stroke-width:1;"/><line style="stroke:#181818;stroke-width:1;" x1="1071.8423" x2="1071.8423" y1="969.4902" y2="989.4902"/><polygon fill="#181818" points="1067.8423,979.4902,1071.8423,989.4902,1075.8423,979.4902,1071.8423,983.4902" style="stroke:#181818;stroke-width:1;"/><line style="stroke:#181818;stroke-width:1;" x1="1071.8423" x2="1071.8423" y1="1024.584" y2="1044.584"/><polygon fill="#181818" points="1067.8423,1034.584,1071.8423,1044.584,1075.8423,1034.584,1071.8423,1038.584" style="stroke:#181818;stroke-width:1;"/><line style="stroke:#181818;stroke-width:1;" x1="712.0825" x2="712.0825" y1="1114.1309" y2="1134.1309"/><polygon fill="#181818" points="708.0825,1124.1309,712.0825,1134.1309,716.0825,1124.1309,712.0825,1128.1309" style="stroke:#181818;stroke-width:1;"/><line style="stroke:#181818;stroke-width:1;" x1="937.4751" x2="937.4751" y1="1114.1309" y2="1134.1309"/><polygon fill="#181818" points="933.4751,1124.1309,937.4751,1134.1309,941.4751,1124.1309,937.4751,1128.1309" style="stroke:#181818;stroke-width:1;"/><line style="stroke:#181818;stroke-width:1;" x1="1188.8804" x2="1188.8804" y1="1114.1309" y2="1134.1309"/><polygon fill="#181818" points="1184.8804,1124.1309,1188.8804,1134.1309,1192.8804,1124.1309,1188.8804,1128.1309" style="stroke:#181818;stroke-width:1;"/><line style="stroke:#181818;stroke-width:1;" x1="1413.939" x2="1413.939" y1="1114.1309" y2="1134.1309"/><polygon fill="#181818" points="1409.939,1124.1309,1413.939,1134.1309,1417.939,1124.1309,1413.939,1128.1309" style="stroke:#181818;stroke-width:1;"/><line style="stroke:#181818;stroke-width:1;" x1="712.0825" x2="712.0825" y1="1169.2246" y2="1189.2246"/><polygon fill="#181818" points="708.0825,1179.2246,712.0825,1189.2246,716.0825,1179.2246,712.0825,1183.2246" style="stroke:#181818;stroke-width:1;"/><line style="stroke:#181818;stroke-width:1;" x1="937.4751" x2="937.4751" y1="1169.2246" y2="1189.2246"/><polygon fill="#181818" points="933.4751,1179.2246,937.4751,1189.2246,941.4751,1179.2246,937.4751,1183.2246" style="stroke:#181818;stroke-width:1;"/><line style="stroke:#181818;stroke-width:1;" x1="1188.8804" x2="1188.8804" y1="1169.2246" y2="1189.2246"/><polygon fill="#181818" points="1184.8804,1179.2246,1188.8804,1189.2246,1192.8804,1179.2246,1188.8804,1183.2246" style="stroke:#181818;stroke-width:1;"/><line style="stroke:#181818;stroke-width:1;" x1="1413.939" x2="1413.939" y1="1169.2246" y2="1189.2246"/><polygon fill="#181818" points="1409.939,1179.2246,1413.939,1189.2246,1417.939,1179.2246,1413.939,1183.2246" style="stroke:#181818;stroke-width:1;"/><line style="stroke:#181818;stroke-width:1;" x1="1071.8423" x2="1071.8423" y1="1079.6777" y2="1108.1309"/><polygon fill="#181818" points="1067.8423,1098.1309,1071.8423,1108.1309,1075.8423,1098.1309,1071.8423,1102.1309" style="stroke:#181818;stroke-width:1;"/><line style="stroke:#181818;stroke-width:1;" x1="1071.8423" x2="1071.8423" y1="1195.2246" y2="1215.2246"/><polygon fill="#181818" points="1067.8423,1205.2246,1071.8423,1215.2246,1075.8423,1205.2246,1071.8423,1209.2246" style="stroke:#181818;stroke-width:1;"/><line style="stroke:#181818;stroke-width:1;" x1="1071.8423" x2="1071.8423" y1="1250.3184" y2="1270.3184"/><polygon fill="#181818" points="1067.8423,1260.3184,1071.8423,1270.3184,1075.8423,1260.3184,1071.8423,1264.3184" style="stroke:#181818;stroke-width:1;"/><line style="stroke:#181818;stroke-width:1;" x1="1071.8423" x2="1071.8423" y1="854.3848" y2="879.3027"/><polygon fill="#181818" points="1067.8423,869.3027,1071.8423,879.3027,1075.8423,869.3027,1071.8423,873.3027" style="stroke:#181818;stroke-width:1;"/><line style="stroke:#181818;stroke-width:1;" x1="1100.6538" x2="1548.2935" y1="842.3848" y2="842.3848"/><polygon fill="#181818" points="1544.2935,1078.1309,1548.2935,1088.1309,1552.2935,1078.1309,1548.2935,1082.1309" style="stroke:#181818;stroke-width:1;"/><line style="stroke:#181818;stroke-width:1;" x1="1548.2935" x2="1548.2935" y1="842.3848" y2="1337.4121"/><line style="stroke:#181818;stroke-width:1;" x1="1548.2935" x2="1083.8423" y1="1337.4121" y2="1337.4121"/><polygon fill="#181818" points="1093.8423,1333.4121,1083.8423,1337.4121,1093.8423,1341.4121,1089.8423,1337.4121" style="stroke:#181818;stroke-width:1;"/><line style="stroke:#181818;stroke-width:1;" x1="1071.8423" x2="1071.8423" y1="1305.4121" y2="1325.4121"/><polygon fill="#181818" points="1067.8423,1315.4121,1071.8423,1325.4121,1075.8423,1315.4121,1071.8423,1319.4121" style="stroke:#181818;stroke-width:1;"/><line style="stroke:#181818;stroke-width:1;" x1="1071.8423" x2="1071.8423" y1="810.3848" y2="830.3848"/><polygon fill="#181818" points="1067.8423,820.3848,1071.8423,830.3848,1075.8423,820.3848,1071.8423,824.3848" style="stroke:#181818;stroke-width:1;"/><line style="stroke:#181818;stroke-width:1;" x1="150.0361" x2="150.0361" y1="153.7988" y2="158.7988"/><line style="stroke:#181818;stroke-width:1;" x1="150.0361" x2="1071.8423" y1="158.7988" y2="158.7988"/><line style="stroke:#181818;stroke-width:1;" x1="1071.8423" x2="1071.8423" y1="158.7988" y2="173.7988"/><polygon fill="#181818" points="1067.8423,163.7988,1071.8423,173.7988,1075.8423,163.7988,1071.8423,167.7988" style="stroke:#181818;stroke-width:1;"/><line style="stroke:#181818;stroke-width:1;" x1="1071.8423" x2="1071.8423" y1="1349.4121" y2="1354.4121"/><line style="stroke:#181818;stroke-width:1;" x1="1071.8423" x2="150.0361" y1="1354.4121" y2="1354.4121"/><line style="stroke:#181818;stroke-width:1;" x1="150.0361" x2="150.0361" y1="1354.4121" y2="1369.4121"/><polygon fill="#181818" points="146.0361,1359.4121,150.0361,1369.4121,154.0361,1359.4121,150.0361,1363.4121" style="stroke:#181818;stroke-width:1;"/><text fill="#000000" font-family="sans-serif" font-size="18" lengthAdjust="spacing" textLength="69.0381" x="272.6765" y="69.75">Kullan&#305;c&#305;</text><text fill="#000000" font-family="sans-serif" font-size="18" lengthAdjust="spacing" textLength="67.0166" x="1049.834" y="69.75">Platform</text><!--SRC=[PLIzSXit4ExlARQq9upPaqL6ZfoHmoJIH1crcHMv57U0mrq0d3B7KP67I1sMgjcuOdUd5ycJv5kGigseqH0wxExtXysQlT0LPwL___gR5ZUB1Tr8LBfWvpcE-mcTZ_kd7TEPotQkwLxeMdqjT1cTf1mvzKtegkGqj1ovfhJXLVEdXZjQiqzIFImwxpcC- -MuVwWIskHgzY7gqqvhcj9gE6p5PpJ4x-CiVfurfLH6PVPog_FguSfpNZUnVgXc2wszEeEpaSGj9TvewtNSQL1AMTflkvPMpRYBdUTvDViDFLhAmo4EXmbjkUPWnJqdzdJzqnavxZ6V6jyzxN8NvvMkwStvIqJVlQMyaK1lFjnBVblHh8WbuPv3ng-mmZVtXIvwjedhSOyZ3O_ZtZ7wqko2K-94ms5u70vXEHp0CF8QUA8cmy_zk8_JcfCJBwNaPuR0GethGXVfn-lBNwRVNz_GDtGh_iukARNi17RQxQT_T1t5wuJSk4zCmwSQnBqD4lSPOUs1Y81Q8qJ61SdpId1S7xa_E_EAzRb0PgYaKSqOhv6uT7nsqp3ye853cdAtqZnr7hJSIUEmOk28oOxZFeDspmHSN2JoiEOh5xxWAR5xXGN1nCSeMudt9OiJwdeKrxmrUXEwRUBmM7BIkSuX6rn6z6PF4t9iF4a1_5wS5mYHJ8caLg8jeWSm77ZSeG1S8PPTlWIuhYvln2wslELOaEjMWza15pVe5Ym3NFfV0w4cV1DQmR6iJVWzoXyTNf6iR8X1wkrliCGIWkugejbLRDRg2nohAk_cwkD7uj04F08fHfpk4z-n1giwmrla2IrvkH6h1GMlsJme3wSa9akjsvAObxNdJO8ZA3h3b9XbpSjyUegkwsCtxhfNDHSSTQa4U11ngOLcAPbQ167pKHrmHNPG3LzF35yavPI98gm52aN3esTAvHZzKMuvhW-bvzxuT-wEAXzXMXhpyN963pWLC3vosyJkPTHVxgVJdaZOQSkkQ0vnUMiDsPyW-JdMMDDMeSb2KUyskNhFIuTzStp0jYwGoMHaWMKrV0grREVm5hkaBkUxuO2ObJ7s6Y0K0XFVLVz3xunc4byQ1qMO37DP4Rq4jNLJkA3zk-fNoH8iLLHpBZYiwgJSsdPv4ND2A-x1fkpEalKUIJZk0mO4CyQO_GS0]--></g></svg>