<svg xmlns="http://www.w3.org/2000/svg" xmlns:xlink="http://www.w3.org/1999/xlink" contentStyleType="text/css" height="689px" preserveAspectRatio="none" style="width:1008px;height:689px;background:#FFFFFF;" version="1.1" viewBox="0 0 1008 689" width="1008px" zoomAndPan="magnify"><title>Pati &#8212; AI Serving, GPU Kuyruklama ve Dayan&#305;kl&#305;l&#305;k</title><defs/><g><text fill="#000000" font-family="sans-serif" font-size="14" font-weight="bold" lengthAdjust="spacing" textLength="340.0127" x="327.2395" y="24.5332">Pati &#8212; AI Serving, GPU Kuyruklama ve Dayan&#305;kl&#305;l&#305;k</text><!--entity GW--><g id="elem_GW"><rect fill="#F1F1F1" height="37.6094" rx="2.5" ry="2.5" style="stroke:#181818;stroke-width:0.5;" width="92.3652" x="418.5" y="45.6094"/><text fill="#000000" font-family="sans-serif" font-size="14" lengthAdjust="spacing" textLength="72.3652" x="428.5" y="70.1426">AI Gateway</text></g><!--entity AC--><g id="elem_AC"><rect fill="#F1F1F1" height="37.6094" rx="2.5" ry="2.5" style="stroke:#181818;stroke-width:0.5;" width="133.5996" x="397.5" y="161.6094"/><text fill="#000000" font-family="sans-serif" font-size="14" lengthAdjust="spacing" textLength="113.5996" x="407.5" y="186.1426">Admission Control</text></g><!--entity R--><g id="elem_R"><rect fill="#F1F1F1" height="37.6094" rx="2.5" ry="2.5" style="stroke:#181818;stroke-width:0.5;" width="104.041" x="412.5" y="296.1094"/><text fill="#000000" font-family="sans-serif" font-size="14" lengthAdjust="spacing" textLength="84.041" x="422.5" y="320.6426">Model Router</text></g><!--entity RT--><g id="elem_RT"><path d="M754,435.6094 L865.165,435.6094 C870.165,435.6094 870.165,449.4141 870.165,449.4141 C870.165,449.4141 870.165,463.2188 865.165,463.2188 L754,463.2188 C749,463.2188 749,449.4141 749,449.4141 C749,449.4141 749,435.6094 754,435.6094 " fill="#F1F1F1" style="stroke:#181818;stroke-width:0.5;"/><path d="M865.165,435.6094 C860.165,435.6094 860.165,449.4141 860.165,449.4141 C860.165,463.2188 865.165,463.2188 865.165,463.2188 " fill="none" style="stroke:#181818;stroke-width:0.5;"/><text fill="#000000" font-family="sans-serif" font-size="14" lengthAdjust="spacing" textLength="101.165" x="754" y="455.1426">Realtime Queue</text></g><!--entity BQ--><g id="elem_BQ"><path d="M290,435.6094 L411.2891,435.6094 C416.2891,435.6094 416.2891,449.4141 416.2891,449.4141 C416.2891,449.4141 416.2891,463.2188 411.2891,463.2188 L290,463.2188 C285,463.2188 285,449.4141 285,449.4141 C285,449.4141 285,435.6094 290,435.6094 " fill="#F1F1F1" style="stroke:#181818;stroke-width:0.5;"/><path d="M411.2891,435.6094 C406.2891,435.6094 406.2891,449.4141 406.2891,449.4141 C406.2891,463.2188 411.2891,463.2188 411.2891,463.2188 " fill="none" style="stroke:#181818;stroke-width:0.5;"/><text fill="#000000" font-family="sans-serif" font-size="14" lengthAdjust="spacing" textLength="111.2891" x="290" y="455.1426">Batch / 3D Queue</text></g><!--entity CPU--><g id="elem_CPU"><rect fill="#F1F1F1" height="37.6094" rx="2.5" ry="2.5" style="stroke:#181818;stroke-width:0.5;" width="143.7305" x="805.5" y="546.6094"/><text fill="#000000" font-family="sans-serif" font-size="14" lengthAdjust="spacing" textLength="123.7305" x="815.5" y="571.1426">CPU Inference Pool</text></g><!--entity GPU--><g id="elem_GPU"><rect fill="#F1F1F1" height="37.6094" rx="2.5" ry="2.5" style="stroke:#181818;stroke-width:0.5;" width="126.6064" x="643" y="546.6094"/><text fill="#000000" font-family="sans-serif" font-size="14" lengthAdjust="spacing" textLength="106.6064" x="653" y="571.1426">GPU Online Pool</text></g><!--entity BGPU--><g id="elem_BGPU"><rect fill="#F1F1F1" height="37.6094" rx="2.5" ry="2.5" style="stroke:#181818;stroke-width:0.5;" width="121.9375" x="414.5" y="546.6094"/><text fill="#000000" font-family="sans-serif" font-size="14" lengthAdjust="spacing" textLength="101.9375" x="424.5" y="571.1426">GPU Batch Pool</text></g><!--entity AS--><g id="elem_AS"><rect fill="#F1F1F1" height="37.6094" rx="2.5" ry="2.5" style="stroke:#181818;stroke-width:0.5;" width="86.1445" x="477.5" y="430.6094"/><text fill="#000000" font-family="sans-serif" font-size="14" lengthAdjust="spacing" textLength="66.1445" x="487.5" y="455.1426">Autoscaler</text></g><!--entity Cache--><g id="elem_Cache"><rect fill="#F1F1F1" height="37.6094" rx="2.5" ry="2.5" style="stroke:#181818;stroke-width:0.5;" width="102.4893" x="611.5" y="430.6094"/><text fill="#000000" font-family="sans-serif" font-size="14" lengthAdjust="spacing" textLength="82.4893" x="621.5" y="455.1426">Model Cache</text></g><!--entity AR--><g id="elem_AR"><path d="M603,301.6094 C603,291.6094 662.3999,291.6094 662.3999,291.6094 C662.3999,291.6094 721.7998,291.6094 721.7998,301.6094 L721.7998,328.2188 C721.7998,338.2188 662.3999,338.2188 662.3999,338.2188 C662.3999,338.2188 603,338.2188 603,328.2188 L603,301.6094 " fill="#F1F1F1" style="stroke:#181818;stroke-width:0.5;"/><path d="M603,301.6094 C603,311.6094 662.3999,311.6094 662.3999,311.6094 C662.3999,311.6094 721.7998,311.6094 721.7998,301.6094 " fill="none" style="stroke:#181818;stroke-width:0.5;"/><text fill="#000000" font-family="sans-serif" font-size="14" lengthAdjust="spacing" textLength="98.7998" x="613" y="330.1426">Artifact Registry</text></g><!--entity RS--><g id="elem_RS"><rect fill="#F1F1F1" height="37.6094" rx="2.5" ry="2.5" style="stroke:#181818;stroke-width:0.5;" width="97.0342" x="658" y="645.6094"/><text fill="#000000" font-family="sans-serif" font-size="14" lengthAdjust="spacing" textLength="77.0342" x="668" y="670.1426">Result Store</text></g><!--entity MON--><g id="elem_MON"><rect fill="#F1F1F1" height="37.6094" rx="2.5" ry="2.5" style="stroke:#181818;stroke-width:0.5;" width="160.0615" x="140.5" y="45.6094"/><text fill="#000000" font-family="sans-serif" font-size="14" lengthAdjust="spacing" textLength="140.0615" x="150.5" y="70.1426">Cost / Latency Monitor</text></g><!--entity CB--><g id="elem_CB"><rect fill="#F1F1F1" height="37.6094" rx="2.5" ry="2.5" style="stroke:#181818;stroke-width:0.5;" width="112.5791" x="164" y="161.6094"/><text fill="#000000" font-family="sans-serif" font-size="14" lengthAdjust="spacing" textLength="92.5791" x="174" y="186.1426">Circuit Breaker</text></g><g id="elem_GMN34"><path d="M6,277.6094 L6,353.0156 A0,0 0 0 0 6,353.0156 L377.4351,353.0156 A0,0 0 0 0 377.4351,353.0156 L377.4351,287.6094 L367.4351,277.6094 L203.53,277.6094 L216.53,199.7594 L195.53,277.6094 L6,277.6094 A0,0 0 0 0 6,277.6094 " fill="#FEFFDD" style="stroke:#181818;stroke-width:0.5;"/><path d="M367.4351,277.6094 L367.4351,287.6094 L377.4351,287.6094 L367.4351,277.6094 " fill="#FEFFDD" style="stroke:#181818;stroke-width:0.5;"/><text fill="#000000" font-family="sans-serif" font-size="13" lengthAdjust="spacing" textLength="350.4351" x="12" y="296.1045">&#214;ncelik: acil sa&#287;l&#305;k y&#246;nlendirmesi &gt; interaktif kalite kontrol&#252; &gt;</text><text fill="#000000" font-family="sans-serif" font-size="13" lengthAdjust="spacing" textLength="327.7104" x="12" y="312.4561">&#246;neri &gt; 3D/maskot batch. Kullan&#305;c&#305; ba&#351;&#305;na kota, job iptali,</text><text fill="#000000" font-family="sans-serif" font-size="13" lengthAdjust="spacing" textLength="280.3379" x="12" y="328.8076">checkpoint, timeout ve tahmini biti&#351; s&#252;resi vard&#305;r.</text><text fill="#000000" font-family="sans-serif" font-size="13" lengthAdjust="spacing" textLength="329.4814" x="12" y="345.1592">GPU maliyeti model/s&#252;r&#252;m/&#246;zellik/tenant baz&#305;nda &#246;l&#231;&#252;l&#252;r.</text></g><!--link GW to AC--><g id="link_GW_AC"><path d="M464.5,83.6694 C464.5,104.8894 464.5,133.9094 464.5,155.2494 " fill="none" id="GW-to-AC" style="stroke:#181818;stroke-width:1;"/><polygon fill="#181818" points="464.5,161.2494,468.5,152.2494,464.5,156.2494,460.5,152.2494,464.5,161.2494" style="stroke:#181818;stroke-width:1;"/><text fill="#000000" font-family="sans-serif" font-size="13" lengthAdjust="spacing" textLength="101.188" x="465.5" y="128.1045">tenant/user quota</text></g><!--link AC to R--><g id="link_AC_R"><path d="M464.5,199.7594 C464.5,224.9894 464.5,264.4194 464.5,289.7594 " fill="none" id="AC-to-R" style="stroke:#181818;stroke-width:1;"/><polygon fill="#181818" points="464.5,295.7594,468.5,286.7594,464.5,290.7594,460.5,286.7594,464.5,295.7594" style="stroke:#181818;stroke-width:1;"/><text fill="#000000" font-family="sans-serif" font-size="13" lengthAdjust="spacing" textLength="117.8062" x="465.5" y="244.1045">task + SLA + budget</text></g><!--link R to RT--><g id="link_R_RT"><path d="M511.39,334.1194 C581.77,361.1494 707.4687,409.4286 769.6087,433.2886 " fill="none" id="R-to-RT" style="stroke:#181818;stroke-width:1;"/><polygon fill="#181818" points="775.21,435.4394,768.2419,428.4791,770.5423,433.6471,765.3743,435.9475,775.21,435.4394" style="stroke:#181818;stroke-width:1;"/><text fill="#000000" font-family="sans-serif" font-size="13" lengthAdjust="spacing" textLength="161.1289" x="678.5" y="397.1045">sa&#287;l&#305;k/vision d&#252;&#351;&#252;k gecikme</text></g><!--link R to BQ--><g id="link_R_BQ"><path d="M448.89,334.2594 C425.59,361.3294 386.2037,407.1115 365.7137,430.9215 " fill="none" id="R-to-BQ" style="stroke:#181818;stroke-width:1;"/><polygon fill="#181818" points="361.8,435.4694,370.7025,431.2567,365.0614,431.6795,364.6387,426.0385,361.8,435.4694" style="stroke:#181818;stroke-width:1;"/><text fill="#000000" font-family="sans-serif" font-size="13" lengthAdjust="spacing" textLength="120.6626" x="404.5" y="397.1045">3D/maskot async job</text></g><!--link RT to CPU--><g id="link_RT_CPU"><path d="M843.69,463.7694 C858.75,471.4894 874.95,482.8694 883.5,498.6094 C891.46,513.2694 890.1687,526.7419 886.0887,540.6519 " fill="none" id="RT-to-CPU" style="stroke:#181818;stroke-width:1;"/><polygon fill="#181818" points="884.4,546.4094,890.7714,538.899,885.8073,541.6115,883.0948,536.6474,884.4,546.4094" style="stroke:#181818;stroke-width:1;"/><text fill="#000000" font-family="sans-serif" font-size="13" lengthAdjust="spacing" textLength="111.9917" x="888.5" y="513.1045">k&#252;&#231;&#252;k model / kural</text></g><!--link RT to GPU--><g id="link_RT_GPU"><path d="M797.68,463.6894 C779.3,484.0394 747.8033,518.8982 726.9333,541.9882 " fill="none" id="RT-to-GPU" style="stroke:#181818;stroke-width:1;"/><polygon fill="#181818" points="722.91,546.4394,731.9124,542.4447,726.2627,542.73,725.9774,537.0804,722.91,546.4394" style="stroke:#181818;stroke-width:1;"/><text fill="#000000" font-family="sans-serif" font-size="13" lengthAdjust="spacing" textLength="62.1372" x="764.5" y="513.1045">LLM/vision</text></g><!--link BQ to BGPU--><g id="link_BQ_BGPU"><path d="M342.2,463.7294 C334.34,477.9994 325.28,500.8694 336.5,516.6094 C354.21,541.4594 379.7924,552.3538 408.3124,558.2038 " fill="none" id="BQ-to-BGPU" style="stroke:#181818;stroke-width:1;"/><polygon fill="#181818" points="414.19,559.4094,406.1773,553.6825,409.292,558.4047,404.5698,561.5194,414.19,559.4094" style="stroke:#181818;stroke-width:1;"/><text fill="#000000" font-family="sans-serif" font-size="13" lengthAdjust="spacing" textLength="125.0044" x="337.5" y="513.1045">reconstruction/texture</text></g><!--link AR to Cache--><g id="link_AR_Cache"><path d="M662.5,338.8894 C662.5,364.7794 662.5,400.5494 662.5,424.3894 " fill="none" id="AR-to-Cache" style="stroke:#181818;stroke-width:1;"/><polygon fill="#181818" points="662.5,430.3894,666.5,421.3894,662.5,425.3894,658.5,421.3894,662.5,430.3894" style="stroke:#181818;stroke-width:1;"/></g><!--link Cache to CPU--><g id="link_Cache_CPU"><path d="M713.86,464.3894 C763.94,477.8894 832.96,496.7294 835.5,498.6094 C851.98,510.8094 861.1543,526.1139 867.9443,541.1039 " fill="none" id="Cache-to-CPU" style="stroke:#181818;stroke-width:1;"/><polygon fill="#181818" points="870.42,546.5694,870.3501,536.7208,868.3569,542.0148,863.0629,540.0217,870.42,546.5694" style="stroke:#181818;stroke-width:1;"/></g><!--link Cache to GPU--><g id="link_Cache_GPU"><path d="M679.17,468.9194 C685.95,477.3694 693.19,487.8894 697.5,498.6094 C703.68,513.9494 705.478,526.756 706.118,540.356 " fill="none" id="Cache-to-GPU" style="stroke:#181818;stroke-width:1;"/><polygon fill="#181818" points="706.4,546.3494,709.9725,537.1713,706.165,541.3549,701.9814,537.5474,706.4,546.3494" style="stroke:#181818;stroke-width:1;"/></g><!--link Cache to BGPU--><g id="link_Cache_BGPU"><path d="M611.26,460.9694 C583.95,468.2694 550.86,480.1294 525.5,498.6094 C508.07,511.3094 496.9566,526.6263 488.2066,541.4063 " fill="none" id="Cache-to-BGPU" style="stroke:#181818;stroke-width:1;"/><polygon fill="#181818" points="485.15,546.5694,493.177,540.8625,487.6972,542.2668,486.2929,536.7871,485.15,546.5694" style="stroke:#181818;stroke-width:1;"/></g><!--link CPU to RS--><g id="link_CPU_RS"><path d="M845.74,584.6294 C815.12,601.9994 774.259,625.1692 743.599,642.5592 " fill="none" id="CPU-to-RS" style="stroke:#181818;stroke-width:1;"/><polygon fill="#181818" points="738.38,645.5194,748.1819,644.5585,742.7291,643.0526,744.235,637.5999,738.38,645.5194" style="stroke:#181818;stroke-width:1;"/></g><!--link GPU to RS--><g id="link_GPU_RS"><path d="M706.5,584.8494 C706.5,602.1994 706.5,622.1294 706.5,639.4494 " fill="none" id="GPU-to-RS" style="stroke:#181818;stroke-width:1;"/><polygon fill="#181818" points="706.5,645.4494,710.5,636.4494,706.5,640.4494,702.5,636.4494,706.5,645.4494" style="stroke:#181818;stroke-width:1;"/></g><!--link BGPU to RS--><g id="link_BGPU_RS"><path d="M518.41,584.6294 C559.77,601.9994 616.488,625.8062 657.898,643.1962 " fill="none" id="BGPU-to-RS" style="stroke:#181818;stroke-width:1;"/><polygon fill="#181818" points="663.43,645.5194,656.6808,638.3467,658.82,643.5834,653.5832,645.7227,663.43,645.5194" style="stroke:#181818;stroke-width:1;"/></g><!--link AS to GPU--><g id="link_AS_GPU"><path d="M523.19,468.7494 C526.31,483.5994 532.9,504.1094 546.5,516.6094 C572.65,540.6594 604.5111,551.5826 636.7811,557.5826 " fill="none" id="AS-to-GPU" style="stroke:#181818;stroke-width:1;"/><polygon fill="#181818" points="642.68,558.6794,634.5628,553.1016,637.7642,557.7654,633.1005,560.9668,642.68,558.6794" style="stroke:#181818;stroke-width:1;"/><text fill="#000000" font-family="sans-serif" font-size="13" lengthAdjust="spacing" textLength="141.3052" x="547.5" y="513.1045">queue depth + utilization</text></g><!--link AS to BGPU--><g id="link_AS_BGPU"><path d="M497.91,468.8094 C489.55,476.9494 481.01,487.2694 476.5,498.6094 C470.4,513.9394 470.1735,526.9476 471.7235,540.6076 " fill="none" id="AS-to-BGPU" style="stroke:#181818;stroke-width:1;"/><polygon fill="#181818" points="472.4,546.5694,475.3598,537.1758,471.8363,541.6013,467.4108,538.0777,472.4,546.5694" style="stroke:#181818;stroke-width:1;"/></g><!--link MON to CB--><g id="link_MON_CB"><path d="M220.5,83.6694 C220.5,104.8894 220.5,133.9094 220.5,155.2494 " fill="none" id="MON-to-CB" style="stroke:#181818;stroke-width:1;"/><polygon fill="#181818" points="220.5,161.2494,224.5,152.2494,220.5,156.2494,216.5,152.2494,220.5,161.2494" style="stroke:#181818;stroke-width:1;"/><text fill="#000000" font-family="sans-serif" font-size="13" lengthAdjust="spacing" textLength="122.1099" x="221.5" y="128.1045">hata/maliyet/gecikme</text></g><!--link CB to R--><g id="link_CB_R"><path d="M241.79,199.7194 C259.55,214.1394 285.98,234.0894 311.5,247.6094 C346.16,265.9694 358.59,261.8394 394.5,277.6094 C407.05,283.1194 415.1821,287.0729 426.8821,293.2929 " fill="none" id="CB-to-R" style="stroke:#181818;stroke-width:1;"/><polygon fill="#181818" points="432.18,296.1094,426.1108,288.3527,427.7651,293.7623,422.3555,295.4166,432.18,296.1094" style="stroke:#181818;stroke-width:1;"/><text fill="#000000" font-family="sans-serif" font-size="13" lengthAdjust="spacing" textLength="143.7935" x="312.5" y="244.1045">fallback / model kapatma</text></g><!--SRC=[PLInRjim4Dtr5OUiTQeXMuO0aWC8GUqcaLDaFbECpOeY7VBar9dw4KLNZvszPF8cvqVw9JrATY8tW21GV8_lxjuTHOgqX1ia1Nz__eBa2YRIBPMP3I2x-GPVwfMhIuqLmbB29QxGx3QbtctuAIDVAhD0XnK8MosiaOOcj68z9mMXcMdPe_Wv5lQ9bU41jPVHsn4uuQWPadp2rGcWX-p-22mgvRso1eRMaBEwvIJ3FcTi2waXjpL9ry9vz5ZBMi99Bb6JgYJSXkyEkpk0APAOGmndbpqulUqh3zc4A_CWdJI2VRBxyBpTPmMhherMfaV9FbAwU6-Cz3zAKfFr0lM-XcJoiSGXYdcNPhkA2YISekTQ4aVg0GL1BcVAa-kiJFA-HYvzhGacPDtUYgCGG-k9tHXnAunOmTWQnSoMEBx-UiHKJjIA87KIotswmpJAxk7qz89x0-V06cWehhrqy5XRmeYt0ve747q9ds0oIlWzhOkPf2Zlq3k6FUxMOS3YfMeRNpJRrtMpBM4cXIehkUUcjymzkumhLhF4EQoCWEzs6h58m4Flpg5ijisVSBXg7OoXh1tg0oThEQFHU1yhOj5MkmDuaArXDsj13COaVr3jP9Hq2NGzQD-7WBslxEYhRNR8gAro4cNloxItJYQzjBenBUI2vknJJKghPmo976YjAFUcYvxoaJaF11kYrKfIVB2BaOFpVFVq54N9FdH-bBX0gZ0obYHCBP6jekOt3xjMvJcWKFgj7R1gNeoMfb2kabx11IZ35mvBdZpMqOeLokwEDbkuY9WjNQ2zzsWQRi1d_gre7VuaOhVXhTVrRcEGZn8EGlz0BOZL1X5x9yg5vIW329UOxtVu3H7EAsKKJ1MfrpNuPkj2EajqnMxZFhVMxYrGNPLnu3JRAcvUdgNcok9kF3duCySk49eN7QQ44sS1BX627_y0]--></g></svg>