<svg xmlns="http://www.w3.org/2000/svg" xmlns:xlink="http://www.w3.org/1999/xlink" contentStyleType="text/css" height="878px" preserveAspectRatio="none" style="width:1159px;height:878px;background:#FFFFFF;" version="1.1" viewBox="0 0 1159 878" width="1159px" zoomAndPan="magnify"><title>Pati API &#8212; Kay&#305;t, Giri&#351; ve Refresh Rotation</title><defs/><g><text fill="#000000" font-family="sans-serif" font-size="14" font-weight="bold" lengthAdjust="spacing" textLength="285.5098" x="438.0286" y="29.5332">Pati API &#8212; Kay&#305;t, Giri&#351; ve Refresh Rotation</text><rect fill="none" height="216.2969" style="stroke:#000000;stroke-width:1.5;" width="1142.5669" x="10" y="563.1406"/><line style="stroke:#181818;stroke-width:0.5;stroke-dasharray:5.0,5.0;" x1="40" x2="40" y1="121.2188" y2="796.4375"/><line style="stroke:#181818;stroke-width:0.5;stroke-dasharray:5.0,5.0;" x1="263.5996" x2="263.5996" y1="121.2188" y2="796.4375"/><line style="stroke:#181818;stroke-width:0.5;stroke-dasharray:5.0,5.0;" x1="428.3794" x2="428.3794" y1="121.2188" y2="796.4375"/><line style="stroke:#181818;stroke-width:0.5;stroke-dasharray:5.0,5.0;" x1="659.0449" x2="659.0449" y1="121.2188" y2="796.4375"/><line style="stroke:#181818;stroke-width:0.5;stroke-dasharray:5.0,5.0;" x1="754.3066" x2="754.3066" y1="121.2188" y2="796.4375"/><line style="stroke:#181818;stroke-width:0.5;stroke-dasharray:5.0,5.0;" x1="911.1343" x2="911.1343" y1="121.2188" y2="796.4375"/><line style="stroke:#181818;stroke-width:0.5;stroke-dasharray:5.0,5.0;" x1="1109.4292" x2="1109.4292" y1="121.2188" y2="796.4375"/><text fill="#000000" font-family="sans-serif" font-size="14" lengthAdjust="spacing" textLength="35.793" x="20" y="118.1426">Client</text><ellipse cx="40.8965" cy="52.1094" fill="#E2E2F0" rx="8" ry="8" style="stroke:#181818;stroke-width:0.5;"/><path d="M40.8965,60.1094 L40.8965,87.1094 M27.8965,68.1094 L53.8965,68.1094 M40.8965,87.1094 L27.8965,102.1094 M40.8965,87.1094 L53.8965,102.1094 " fill="none" style="stroke:#181818;stroke-width:0.5;"/><text fill="#000000" font-family="sans-serif" font-size="14" lengthAdjust="spacing" textLength="35.793" x="20" y="809.9707">Client</text><ellipse cx="40.8965" cy="821.5469" fill="#E2E2F0" rx="8" ry="8" style="stroke:#181818;stroke-width:0.5;"/><path d="M40.8965,829.5469 L40.8965,856.5469 M27.8965,837.5469 L53.8965,837.5469 M40.8965,856.5469 L27.8965,871.5469 M40.8965,856.5469 L53.8965,871.5469 " fill="none" style="stroke:#181818;stroke-width:0.5;"/><rect fill="#E2E2F0" height="31.6094" rx="2.5" ry="2.5" style="stroke:#181818;stroke-width:0.5;" width="107.3789" x="210.5996" y="88.6094"/><text fill="#000000" font-family="sans-serif" font-size="14" lengthAdjust="spacing" textLength="93.3789" x="217.5996" y="110.1426">Auth Controller</text><rect fill="#E2E2F0" height="31.6094" rx="2.5" ry="2.5" style="stroke:#181818;stroke-width:0.5;" width="107.3789" x="210.5996" y="795.4375"/><text fill="#000000" font-family="sans-serif" font-size="14" lengthAdjust="spacing" textLength="93.3789" x="217.5996" y="816.9707">Auth Controller</text><rect fill="#E2E2F0" height="31.6094" rx="2.5" ry="2.5" style="stroke:#181818;stroke-width:0.5;" width="108.9443" x="374.3794" y="88.6094"/><text fill="#000000" font-family="sans-serif" font-size="14" lengthAdjust="spacing" textLength="94.9443" x="381.3794" y="110.1426">Identity Module</text><rect fill="#E2E2F0" height="31.6094" rx="2.5" ry="2.5" style="stroke:#181818;stroke-width:0.5;" width="108.9443" x="374.3794" y="795.4375"/><text fill="#000000" font-family="sans-serif" font-size="14" lengthAdjust="spacing" textLength="94.9443" x="381.3794" y="816.9707">Identity Module</text><text fill="#000000" font-family="sans-serif" font-size="14" lengthAdjust="spacing" textLength="76.2617" x="618.0449" y="118.1426">PostgreSQL</text><path d="M641.1758,67.6094 C641.1758,57.6094 659.1758,57.6094 659.1758,57.6094 C659.1758,57.6094 677.1758,57.6094 677.1758,67.6094 L677.1758,93.6094 C677.1758,103.6094 659.1758,103.6094 659.1758,103.6094 C659.1758,103.6094 641.1758,103.6094 641.1758,93.6094 L641.1758,67.6094 " fill="#E2E2F0" style="stroke:#181818;stroke-width:1.5;"/><path d="M641.1758,67.6094 C641.1758,77.6094 659.1758,77.6094 659.1758,77.6094 C659.1758,77.6094 677.1758,77.6094 677.1758,67.6094 " fill="none" style="stroke:#181818;stroke-width:1.5;"/><text fill="#000000" font-family="sans-serif" font-size="14" lengthAdjust="spacing" textLength="76.2617" x="618.0449" y="809.9707">PostgreSQL</text><path d="M641.1758,823.0469 C641.1758,813.0469 659.1758,813.0469 659.1758,813.0469 C659.1758,813.0469 677.1758,813.0469 677.1758,823.0469 L677.1758,849.0469 C677.1758,859.0469 659.1758,859.0469 659.1758,859.0469 C659.1758,859.0469 641.1758,859.0469 641.1758,849.0469 L641.1758,823.0469 " fill="#E2E2F0" style="stroke:#181818;stroke-width:1.5;"/><path d="M641.1758,823.0469 C641.1758,833.0469 659.1758,833.0469 659.1758,833.0469 C659.1758,833.0469 677.1758,833.0469 677.1758,823.0469 " fill="none" style="stroke:#181818;stroke-width:1.5;"/><rect fill="#E2E2F0" height="31.6094" rx="2.5" ry="2.5" style="stroke:#181818;stroke-width:0.5;" width="88.7031" x="710.3066" y="88.6094"/><text fill="#000000" font-family="sans-serif" font-size="14" lengthAdjust="spacing" textLength="74.7031" x="717.3066" y="110.1426">Risk Engine</text><rect fill="#E2E2F0" height="31.6094" rx="2.5" ry="2.5" style="stroke:#181818;stroke-width:0.5;" width="88.7031" x="710.3066" y="795.4375"/><text fill="#000000" font-family="sans-serif" font-size="14" lengthAdjust="spacing" textLength="74.7031" x="717.3066" y="816.9707">Risk Engine</text><rect fill="#E2E2F0" height="31.6094" rx="2.5" ry="2.5" style="stroke:#181818;stroke-width:0.5;" width="103.4824" x="860.1343" y="88.6094"/><text fill="#000000" font-family="sans-serif" font-size="14" lengthAdjust="spacing" textLength="89.4824" x="867.1343" y="110.1426">Token Service</text><rect fill="#E2E2F0" height="31.6094" rx="2.5" ry="2.5" style="stroke:#181818;stroke-width:0.5;" width="103.4824" x="860.1343" y="795.4375"/><text fill="#000000" font-family="sans-serif" font-size="14" lengthAdjust="spacing" textLength="89.4824" x="867.1343" y="816.9707">Token Service</text><path d="M1082.4292,93.6094 L1137.5669,93.6094 C1142.5669,93.6094 1142.5669,107.4141 1142.5669,107.4141 C1142.5669,107.4141 1142.5669,121.2188 1137.5669,121.2188 L1082.4292,121.2188 C1077.4292,121.2188 1077.4292,107.4141 1077.4292,107.4141 C1077.4292,107.4141 1077.4292,93.6094 1082.4292,93.6094 " fill="#E2E2F0" style="stroke:#181818;stroke-width:0.5;"/><path d="M1137.5669,93.6094 C1132.5669,93.6094 1132.5669,107.4141 1132.5669,107.4141 C1132.5669,121.2188 1137.5669,121.2188 1137.5669,121.2188 " fill="none" style="stroke:#181818;stroke-width:0.5;"/><text fill="#000000" font-family="sans-serif" font-size="14" lengthAdjust="spacing" textLength="45.1377" x="1082.4292" y="113.1426">Outbox</text><path d="M1082.4292,795.4375 L1137.5669,795.4375 C1142.5669,795.4375 1142.5669,809.2422 1142.5669,809.2422 C1142.5669,809.2422 1142.5669,823.0469 1137.5669,823.0469 L1082.4292,823.0469 C1077.4292,823.0469 1077.4292,809.2422 1077.4292,809.2422 C1077.4292,809.2422 1077.4292,795.4375 1082.4292,795.4375 " fill="#E2E2F0" style="stroke:#181818;stroke-width:0.5;"/><path d="M1137.5669,795.4375 C1132.5669,795.4375 1132.5669,809.2422 1132.5669,809.2422 C1132.5669,823.0469 1137.5669,823.0469 1137.5669,823.0469 " fill="none" style="stroke:#181818;stroke-width:0.5;"/><text fill="#000000" font-family="sans-serif" font-size="14" lengthAdjust="spacing" textLength="45.1377" x="1082.4292" y="814.9707">Outbox</text><polygon fill="#181818" points="252.2891,149.5703,262.2891,153.5703,252.2891,157.5703,256.2891,153.5703" style="stroke:#181818;stroke-width:1;"/><line style="stroke:#181818;stroke-width:1;" x1="40.8965" x2="258.2891" y1="153.5703" y2="153.5703"/><text fill="#000000" font-family="sans-serif" font-size="13" lengthAdjust="spacing" textLength="132.2217" x="47.8965" y="148.7139">POST /v1/auth/register</text><polygon fill="#181818" points="416.8516,179.9219,426.8516,183.9219,416.8516,187.9219,420.8516,183.9219" style="stroke:#181818;stroke-width:1;"/><line style="stroke:#181818;stroke-width:1;" x1="264.2891" x2="422.8516" y1="183.9219" y2="183.9219"/><text fill="#000000" font-family="sans-serif" font-size="13" lengthAdjust="spacing" textLength="140.5625" x="271.2891" y="179.0654">validate + hash identifier</text><polygon fill="#181818" points="647.1758,210.2734,657.1758,214.2734,647.1758,218.2734,651.1758,214.2734" style="stroke:#181818;stroke-width:1;"/><line style="stroke:#181818;stroke-width:1;" x1="428.8516" x2="653.1758" y1="214.2734" y2="214.2734"/><text fill="#000000" font-family="sans-serif" font-size="13" lengthAdjust="spacing" textLength="206.3242" x="435.8516" y="209.417">unique user + credential transaction</text><polygon fill="#181818" points="1097.998,240.625,1107.998,244.625,1097.998,248.625,1101.998,244.625" style="stroke:#181818;stroke-width:1;"/><line style="stroke:#181818;stroke-width:1;" x1="428.8516" x2="1103.998" y1="244.625" y2="244.625"/><text fill="#000000" font-family="sans-serif" font-size="13" lengthAdjust="spacing" textLength="90.3145" x="435.8516" y="239.7686">UserRegistered</text><polygon fill="#181818" points="51.8965,270.9766,41.8965,274.9766,51.8965,278.9766,47.8965,274.9766" style="stroke:#181818;stroke-width:1;"/><line style="stroke:#181818;stroke-width:1;stroke-dasharray:2.0,2.0;" x1="45.8965" x2="263.2891" y1="274.9766" y2="274.9766"/><text fill="#000000" font-family="sans-serif" font-size="13" lengthAdjust="spacing" textLength="168.0098" x="57.8965" y="270.1201">201 access + rotating refresh</text><polygon fill="#181818" points="252.2891,301.3281,262.2891,305.3281,252.2891,309.3281,256.2891,305.3281" style="stroke:#181818;stroke-width:1;"/><line style="stroke:#181818;stroke-width:1;" x1="40.8965" x2="258.2891" y1="305.3281" y2="305.3281"/><text fill="#000000" font-family="sans-serif" font-size="13" lengthAdjust="spacing" textLength="116.3398" x="47.8965" y="300.4717">POST /v1/auth/login</text><polygon fill="#181818" points="742.6582,331.6797,752.6582,335.6797,742.6582,339.6797,746.6582,335.6797" style="stroke:#181818;stroke-width:1;"/><line style="stroke:#181818;stroke-width:1;" x1="264.2891" x2="748.6582" y1="335.6797" y2="335.6797"/><text fill="#000000" font-family="sans-serif" font-size="13" lengthAdjust="spacing" textLength="179.9307" x="271.2891" y="330.8232">device/network/account signals</text><polygon fill="#181818" points="275.2891,362.0313,265.2891,366.0313,275.2891,370.0313,271.2891,366.0313" style="stroke:#181818;stroke-width:1;"/><line style="stroke:#181818;stroke-width:1;stroke-dasharray:2.0,2.0;" x1="269.2891" x2="753.6582" y1="366.0313" y2="366.0313"/><text fill="#000000" font-family="sans-serif" font-size="13" lengthAdjust="spacing" textLength="122.8462" x="281.2891" y="361.1748">allow / step-up / deny</text><polygon fill="#181818" points="416.8516,392.3828,426.8516,396.3828,416.8516,400.3828,420.8516,396.3828" style="stroke:#181818;stroke-width:1;"/><line style="stroke:#181818;stroke-width:1;" x1="264.2891" x2="422.8516" y1="396.3828" y2="396.3828"/><text fill="#000000" font-family="sans-serif" font-size="13" lengthAdjust="spacing" textLength="91.0381" x="271.2891" y="391.5264">verify credential</text><polygon fill="#181818" points="899.8755,422.7344,909.8755,426.7344,899.8755,430.7344,903.8755,426.7344" style="stroke:#181818;stroke-width:1;"/><line style="stroke:#181818;stroke-width:1;" x1="428.8516" x2="905.8755" y1="426.7344" y2="426.7344"/><text fill="#000000" font-family="sans-serif" font-size="13" lengthAdjust="spacing" textLength="103.3208" x="435.8516" y="421.8779">issue token family</text><polygon fill="#181818" points="670.1758,453.0859,660.1758,457.0859,670.1758,461.0859,666.1758,457.0859" style="stroke:#181818;stroke-width:1;"/><line style="stroke:#181818;stroke-width:1;" x1="664.1758" x2="910.8755" y1="457.0859" y2="457.0859"/><text fill="#000000" font-family="sans-serif" font-size="13" lengthAdjust="spacing" textLength="173.418" x="676.1758" y="452.2295">refresh hash + family + device</text><polygon fill="#181818" points="51.8965,483.4375,41.8965,487.4375,51.8965,491.4375,47.8965,487.4375" style="stroke:#181818;stroke-width:1;"/><line style="stroke:#181818;stroke-width:1;stroke-dasharray:2.0,2.0;" x1="45.8965" x2="263.2891" y1="487.4375" y2="487.4375"/><text fill="#000000" font-family="sans-serif" font-size="13" lengthAdjust="spacing" textLength="63.6035" x="57.8965" y="482.5811">200 tokens</text><polygon fill="#181818" points="252.2891,513.7891,262.2891,517.7891,252.2891,521.7891,256.2891,517.7891" style="stroke:#181818;stroke-width:1;"/><line style="stroke:#181818;stroke-width:1;" x1="40.8965" x2="258.2891" y1="517.7891" y2="517.7891"/><text fill="#000000" font-family="sans-serif" font-size="13" lengthAdjust="spacing" textLength="129.3335" x="47.8965" y="512.9326">POST /v1/auth/refresh</text><polygon fill="#181818" points="899.8755,544.1406,909.8755,548.1406,899.8755,552.1406,903.8755,548.1406" style="stroke:#181818;stroke-width:1;"/><line style="stroke:#181818;stroke-width:1;" x1="264.2891" x2="905.8755" y1="548.1406" y2="548.1406"/><text fill="#000000" font-family="sans-serif" font-size="13" lengthAdjust="spacing" textLength="144.4917" x="271.2891" y="543.2842">verify refresh hash/family</text><path d="M10,563.1406 L70.1709,563.1406 L70.1709,571.4922 L60.1709,581.4922 L10,581.4922 L10,563.1406 " fill="#EEEEEE" style="stroke:#000000;stroke-width:1.5;"/><rect fill="none" height="216.2969" style="stroke:#000000;stroke-width:1.5;" width="1142.5669" x="10" y="563.1406"/><text fill="#000000" font-family="sans-serif" font-size="13" font-weight="bold" lengthAdjust="spacing" textLength="15.1709" x="25" y="577.6357">alt</text><text fill="#000000" font-family="sans-serif" font-size="11" font-weight="bold" lengthAdjust="spacing" textLength="98.3931" x="85.1709" y="576.5596">[Valid and unused]</text><polygon fill="#181818" points="670.1758,599.8438,660.1758,603.8438,670.1758,607.8438,666.1758,603.8438" style="stroke:#181818;stroke-width:1;"/><line style="stroke:#181818;stroke-width:1;" x1="664.1758" x2="910.8755" y1="603.8438" y2="603.8438"/><text fill="#000000" font-family="sans-serif" font-size="13" lengthAdjust="spacing" textLength="228.6997" x="676.1758" y="598.9873">revoke old + store next token atomically</text><polygon fill="#181818" points="275.2891,630.1953,265.2891,634.1953,275.2891,638.1953,271.2891,634.1953" style="stroke:#181818;stroke-width:1;"/><line style="stroke:#181818;stroke-width:1;stroke-dasharray:2.0,2.0;" x1="269.2891" x2="910.8755" y1="634.1953" y2="634.1953"/><text fill="#000000" font-family="sans-serif" font-size="13" lengthAdjust="spacing" textLength="123.1953" x="281.2891" y="629.3389">new access + refresh</text><polygon fill="#181818" points="51.8965,660.5469,41.8965,664.5469,51.8965,668.5469,47.8965,664.5469" style="stroke:#181818;stroke-width:1;"/><line style="stroke:#181818;stroke-width:1;stroke-dasharray:2.0,2.0;" x1="45.8965" x2="263.2891" y1="664.5469" y2="664.5469"/><text fill="#000000" font-family="sans-serif" font-size="13" lengthAdjust="spacing" textLength="63.6035" x="57.8965" y="659.6904">200 tokens</text><line style="stroke:#000000;stroke-width:1;stroke-dasharray:2.0,2.0;" x1="10" x2="1152.5669" y1="673.5469" y2="673.5469"/><text fill="#000000" font-family="sans-serif" font-size="11" font-weight="bold" lengthAdjust="spacing" textLength="88.6338" x="15" y="684.9658">[Reuse detected]</text><polygon fill="#181818" points="670.1758,706.7344,660.1758,710.7344,670.1758,714.7344,666.1758,710.7344" style="stroke:#181818;stroke-width:1;"/><line style="stroke:#181818;stroke-width:1;" x1="664.1758" x2="910.8755" y1="710.7344" y2="710.7344"/><text fill="#000000" font-family="sans-serif" font-size="13" lengthAdjust="spacing" textLength="148.1226" x="676.1758" y="705.8779">revoke entire token family</text><polygon fill="#181818" points="1097.998,737.0859,1107.998,741.0859,1097.998,745.0859,1101.998,741.0859" style="stroke:#181818;stroke-width:1;"/><line style="stroke:#181818;stroke-width:1;" x1="911.8755" x2="1103.998" y1="741.0859" y2="741.0859"/><text fill="#000000" font-family="sans-serif" font-size="13" lengthAdjust="spacing" textLength="174.1226" x="918.8755" y="736.2295">SecuritySessionCompromised</text><polygon fill="#181818" points="51.8965,767.4375,41.8965,771.4375,51.8965,775.4375,47.8965,771.4375" style="stroke:#181818;stroke-width:1;"/><line style="stroke:#181818;stroke-width:1;stroke-dasharray:2.0,2.0;" x1="45.8965" x2="263.2891" y1="771.4375" y2="771.4375"/><text fill="#000000" font-family="sans-serif" font-size="13" lengthAdjust="spacing" textLength="199.3926" x="57.8965" y="766.5811">401 TOKEN_REUSE_DETECTED</text><!--SRC=[XPFFRjD04CRlVefHhgLoYpZrWDGw5eeA9DWkrsfgJv9HDhjXTvpKDnw2Ey_0Ey2By2IClGObvT_Dydopy_k-sHKMGx10ORXUpE3xnqzmYztNB_8CNh7dRvzXJr3GqbDOG-54XSucOSDsXnwt4DROk0FR5IpH14gm5kSXCqnM4fK8rxn3Ap2vRcKDcRFYdJ7a9u01ibF9hD4kbWxUkAOrD4XcIOE23nW89WiNPEMfVFTwA4rlJjiB3Xl8xOfjR2rEovNRa8MI_9xhAAYI3osrUl2ybGVtEFoR9n4Upbz21bUmc9SLfFlB59K_zRJY8EIJhA_FjBv7mqf8S0Phr8nuyB1arSnwpVH6HQrbdGHj8A-wsjCWGWFYqGRDh0zraCzLVQUoOXn4JJ-gPubKL_3yuXAmhYa4FSeF6z7qVLpHF-6DqsWYUQ75XleWKajoS7wJwfckrTR0AwkhJ8euLeLeZ3j02igpEszt-gNutL44v7dP7TcALYejSGZgMuRabxXbqoNLhrH6vfZRsLZNZmZsk- -BU53upuR687uYZ7J7mz8H1Ot0-tv_WBRH9Ub-cWIE0VSw49nfb2henIQmz2YZ7nItvLh3wOQUaSRIuMWz8mpytGlfgz47fgFLjr0jVqJeS_LFWeog_iAKLBTUtqsfK_KcPMwxyyesk7ao-ONUdcf-cx-zB_AxCh-VvbMULVaq8Tly0000]--></g></svg>